<svg width="64" height="70" viewBox="0 0 64 70" fill="none" xmlns="http://www.w3.org/2000/svg">
<path d="M6.67461 20.5307C12.1692 12.2589 21.7849 7.42119 30.863 7.06285C36.6562 6.82395 45.585 5.03222 47.5559 1.06055C48.2726 1.35917 47.4066 7.51078 45.6149 8.58582C49.049 7.98857 49.7359 6.4656 49.9748 6.85381C49.497 8.82471 47.9143 10.9748 45.9434 11.4227C47.6156 13.1249 47.0781 18.7987 47.2573 20.2918C49.4372 20.1723 54.2749 20.4112 57.0521 20.4112C58.0077 20.4112 59.7994 20.1425 60.9043 21.6057C62.3377 23.487 63.5023 27.5782 61.6509 33.3416C61.6509 33.3416 60.2473 38.9855 57.948 40.2696C56.3354 41.1655 47.317 64.7864 32.4457 68.2803C23.8752 70.2811 12.2887 63.5322 7.3913 56.1563C-4.67302 38.1792 4.46481 23.8454 6.67461 20.5307Z" fill="#7F5338"/>
<path d="M46.3315 28.2052C46.3315 27.817 46.66 27.4885 47.0482 27.4885C47.4364 27.4885 47.7649 27.817 47.7649 28.2052C47.7649 28.5934 47.4364 28.9219 47.0482 28.9219C46.66 28.9219 46.3315 28.6233 46.3315 28.2052Z" fill="#351C12"/>
<path d="M50.6915 25.219C50.6915 24.8308 51.0199 24.5023 51.4082 24.5023C51.7964 24.5023 52.1248 24.8308 52.1248 25.219C52.1248 25.6072 51.7964 25.9357 51.4082 25.9357C51.0199 25.9357 50.6915 25.6072 50.6915 25.219Z" fill="#351C12"/>
<path d="M50.8109 29.4296C50.8109 29.0414 51.1394 28.7129 51.5276 28.7129C51.9158 28.7129 52.2443 29.0414 52.2443 29.4296C52.2443 29.8178 51.9158 30.1463 51.5276 30.1463C51.1394 30.1463 50.8109 29.8178 50.8109 29.4296Z" fill="#351C12"/>
<path opacity="0.4" d="M47.4962 1.03064C47.1976 2.13554 47.3768 7.89894 42.8377 8.10798C42.8377 8.10798 43.1961 8.94412 44.0023 9.0337C46.5406 9.30246 48.2428 4.43493 47.4962 1.03064Z" fill="#A9AFB0"/>
<path opacity="0.4" d="M49.9449 6.76416C48.0636 9.33231 46.6302 9.63093 44.5996 10.0191C45.167 11.1838 45.7642 11.6317 45.7642 11.6317C45.7642 11.6317 49.0491 10.8851 49.9449 6.76416Z" fill="#A9AFB0"/>
<path opacity="0.4" d="M60.8147 22.0835C60.8147 22.0835 63.801 32.1769 54.8124 41.3745L58.157 40.8071C58.157 40.8071 62.487 35.0138 62.5467 27.7274C62.3974 23.6065 61.1432 22.7703 60.8147 22.0835Z" fill="#A9AFB0"/>
<path d="M57.4403 26.0551C55.8576 25.9655 54.6631 22.9495 54.8722 21.8147C55.2305 19.8139 58.2167 20.2021 59.889 20.7397C59.889 20.7397 61.1731 21.1876 60.9939 22.2626C60.9043 22.9793 59.9487 26.1746 57.4403 26.0551Z" fill="#351C12"/>
<path opacity="0.4" d="M24.4725 7.98853C24.4725 7.98853 7.15242 11.9303 2.40433 29.3997C-2.7021 48.1233 11.0942 66.5781 26.7121 68.2803C26.7121 68.2803 30.6838 68.0414 30.0268 67.2351C19.6945 67.6233 2.79254 48.4816 8.79484 27.4885C13.2144 12.0498 24.4725 7.98853 24.4725 7.98853Z" fill="#A9AFB0"/>
<path opacity="0.2" d="M58.3959 21.5758C58.3959 21.8445 57.8584 22.0834 57.2313 22.0834C56.5743 22.0834 56.0667 21.8445 56.0667 21.5758C56.0667 21.307 56.6042 21.0681 57.2313 21.0681C57.8882 21.0681 58.3959 21.307 58.3959 21.5758Z" fill="white"/>
<path opacity="0.4" d="M57.2313 27.6976C57.2313 27.6976 56.2458 31.2214 57.5598 31.8485C47.1976 43.1065 37.4924 32.5054 37.0444 29.6984C49.9449 42.36 57.2313 27.6976 57.2313 27.6976Z" fill="#A9AFB0"/>
<path d="M53.827 32.2964L53.17 34.5957C52.8117 35.85 53.3791 37.1042 54.4243 37.4028C55.4694 37.7014 56.6042 36.925 56.9625 35.6708L57.6195 33.3714C57.6195 33.3714 57.5896 29.5789 57.5001 27.1003C56.4549 30.3255 53.827 32.2964 53.827 32.2964Z" fill="#DA3A36"/>
<path opacity="0.5" d="M32.8936 24.8906C32.4755 24.8906 32.0276 24.8308 31.5797 24.6815C30.3852 24.2933 29.3699 22.8599 28.2052 22.2328C26.8316 21.4863 26.085 20.6203 26.8017 19.0077C27.3094 17.8729 27.8469 16.8278 28.1157 15.5735C28.3844 14.3193 28.265 12.8561 29.6984 12.3186C31.2512 11.7213 31.8783 12.8262 32.7144 13.9013C33.1325 14.4686 33.4311 15.0958 34.118 15.4242C34.9242 15.8124 35.6111 15.3944 36.3278 16.2305C38.866 19.1869 37.0743 24.8906 32.8936 24.8906Z" fill="#B99161"/>
<path d="M29.8477 20.2918C29.8477 20.2918 29.8178 20.2918 29.8477 20.2918C29.5192 20.2918 29.2803 20.023 29.2803 19.7244C29.34 18.1118 30.6241 16.7979 32.2366 16.7083C33.0728 16.6784 33.8492 16.9472 34.4763 17.5146C35.1034 18.082 35.4617 18.8285 35.4916 19.6647C35.4916 19.9633 35.2527 20.232 34.9541 20.2619C34.6555 20.2619 34.3867 20.023 34.3568 19.7244C34.327 19.1869 34.1179 18.7091 33.6999 18.3507C33.3117 17.9924 32.804 17.8132 32.2665 17.8431C31.2512 17.9028 30.415 18.7389 30.3852 19.7542C30.3852 20.0529 30.1463 20.2918 29.8477 20.2918Z" fill="#351C12"/>
<path d="M39.7321 20.2918C39.4036 20.2918 39.1647 20.023 39.1647 19.7244C39.2244 18.1118 40.5085 16.7979 42.121 16.7083C42.9572 16.6784 43.7336 16.9472 44.3607 17.5146C44.9878 18.082 45.3461 18.8285 45.376 19.6647C45.376 19.9633 45.1371 20.232 44.8385 20.2619C44.5399 20.2619 44.2711 20.023 44.2412 19.7244C44.2114 19.1869 44.0023 18.7091 43.5843 18.3507C43.1961 17.9924 42.6884 17.8132 42.1509 17.8431C41.1356 17.9028 40.2994 18.7389 40.2696 19.7542C40.2994 20.0529 40.0307 20.2918 39.7321 20.2918Z" fill="#351C12"/>
<path d="M25.3086 7.89905C24.7711 8.04836 24.2336 8.16781 23.7558 8.31712C22.8002 10.0193 21.755 12.2291 21.0383 14.8569C19.814 19.3661 19.9036 23.8753 21.3071 28.265C21.4265 28.5935 21.3967 28.8922 21.2175 29.1609C20.7994 29.8776 19.6348 30.2957 18.9778 30.4151C17.0069 30.7436 14.0207 30.7436 11.4227 30.7735C10.288 30.7735 9.21291 30.7735 8.25732 30.8033C6.07739 30.8631 3.59883 29.9075 2.97172 28.3248C2.85227 28.7727 2.70296 29.2804 2.55365 29.788C3.65855 31.0721 5.68918 31.9381 7.98857 31.9381C8.07815 31.9381 8.16774 31.9381 8.28719 31.9381C9.21291 31.9082 10.288 31.9082 11.4227 31.9082C14.0804 31.9082 17.1264 31.8784 19.1869 31.5499C19.9932 31.4006 21.5161 30.8929 22.203 29.788C22.5314 29.2206 22.621 28.5935 22.412 27.9366C19.3959 18.5897 23.3676 11.0943 25.3086 7.89905Z" fill="#351C12"/>
<path d="M46.66 35.5215C39.8813 35.5215 36.7159 29.5192 36.6861 29.4297C36.5368 29.1609 36.6562 28.8025 36.925 28.6831C37.1937 28.5338 37.5521 28.6532 37.6715 28.922C37.8208 29.2206 41.4939 36.1188 49.6761 33.9687C56.0965 32.2666 56.9625 25.5476 56.9924 25.4878C57.0222 25.1892 57.3208 24.9503 57.6195 24.9802C57.9181 25.01 58.157 25.3087 58.1271 25.6073C58.1271 25.6969 57.1715 33.1624 49.9747 35.0736C48.7504 35.4021 47.6754 35.5215 46.66 35.5215Z" fill="#351C12"/>
<path d="M60.6953 36.0292C60.8745 35.5514 61.0238 35.0438 61.1731 34.6257C60.3668 35.0438 59.7397 35.1035 59.2619 34.8049C57.6792 33.7597 57.7688 28.5338 58.1869 25.5177L57.0521 25.3684C56.9327 26.2344 55.9173 33.9687 58.6348 35.7604C59.023 36.0292 59.4411 36.1487 59.9189 36.1487C60.1876 36.1487 60.4564 36.1188 60.6953 36.0292Z" fill="#351C12"/>
<path d="M31.52 69.2359C21.6356 69.3255 11.1838 62.5766 7.06283 56.3653C-3.68756 40.2994 2.04598 26.8913 6.40586 20.3216C11.7213 12.3186 21.098 7.12255 30.863 6.70448C36.4173 6.46558 45.376 4.73357 47.2573 0.881352C47.3469 0.732041 47.5261 0.642455 47.6754 0.702179C48.0337 0.85149 48.0935 1.32928 48.1233 1.65777C48.2129 2.5835 48.0039 4.13633 47.6157 5.50999C47.4066 6.31627 47.0781 7.27186 46.6003 7.98855C48.0636 7.60034 48.8102 7.03296 49.2581 6.70448C49.5268 6.5253 49.6762 6.40585 49.8553 6.40585C50.0046 6.40585 50.154 6.49544 50.2435 6.61489C50.3033 6.70448 50.3033 6.79406 50.2734 6.88365C49.7956 8.7351 48.3921 10.8553 46.4809 11.572C47.5261 13.1846 47.5261 16.4097 47.5261 18.6195C47.5261 19.1271 47.5261 19.5751 47.5261 19.9334C47.8546 19.9334 48.2726 19.9036 48.7504 19.9036C50.0046 19.9036 51.5575 19.9334 53.0506 19.9931C54.5138 20.023 55.9173 20.0827 56.9924 20.0827C57.1118 20.0827 57.2313 20.0827 57.3806 20.0827C58.4556 20.0529 60.0383 19.9931 61.1134 21.4265C62.6961 23.5169 63.7412 27.7872 61.9196 33.461C61.8301 33.8193 60.4265 39.2542 58.0376 40.598C57.7389 40.7772 56.8729 42.3898 55.9472 44.0919C52.095 51.1693 44.0919 65.9212 32.4457 68.6386C31.4304 68.8775 32.6547 69.2359 31.52 69.2359ZM47.4664 1.83694C44.6892 5.77875 35.5513 7.18227 30.8928 7.39131C21.3369 7.77951 12.1693 12.8859 6.97324 20.7098C2.70295 27.1302 -2.88128 40.2397 7.63021 55.9771C11.6616 62.0391 21.1876 68.1907 29.549 68.1907C30.6539 68.1907 31.3408 68.1907 32.3262 67.9518C43.6739 65.2941 51.5873 50.7512 55.3798 43.7634C56.7535 41.255 57.3209 40.2397 57.7389 40.0008C59.9189 38.8063 61.2627 33.3415 61.2925 33.2818C61.2925 33.2818 61.2925 33.2818 61.2925 33.2519C63.0544 27.7872 62.069 23.7558 60.6057 21.8147C59.889 20.8591 58.8438 20.7397 57.9181 20.7397C57.7389 20.7397 57.5598 20.7397 57.4105 20.7397C57.2611 20.7397 57.1417 20.7397 57.0223 20.7397C55.9173 20.7397 54.5437 20.7098 53.0506 20.6501C51.5575 20.6203 50.0046 20.5605 48.7504 20.5605C48.1233 20.5605 47.6157 20.5605 47.2275 20.5904C47.0483 20.5904 46.899 20.4709 46.8691 20.2918C46.8392 19.9036 46.8392 19.3362 46.8392 18.5896C46.8392 16.4395 46.8392 12.7964 45.6746 11.6019C45.585 11.5123 45.4059 11.2435 45.8239 11.0942C46.0628 11.0046 48.3025 10.497 49.3775 7.42117C48.7504 7.83924 47.6455 8.52607 45.6448 8.85455C45.4954 8.88441 45.3163 8.79483 45.2565 8.64552C45.1968 8.49621 45.2565 8.31703 45.4059 8.22745C46.0927 7.80938 46.7795 6.28641 47.1677 4.3155C47.4365 3.2106 47.4962 2.3446 47.4664 1.83694Z" fill="#351C12"/>
<path opacity="0.3" d="M25.5177 41.9419C25.5177 41.9419 24.5024 68.1012 46.5705 65.5629C46.5705 65.5629 36.2083 70.0422 27.7872 58.8737C19.3362 47.7053 23.1287 42.9572 23.1287 42.9572L25.5177 41.9419Z" fill="#A9AFB0"/>
<path d="M42.0912 66.608C43.3454 66.4289 45.1371 65.8913 46.0628 65.3538C48.8699 67.0261 52.7818 67.4143 54.5437 65.9809C52.9013 64.8163 53.0804 62.726 53.0804 62.726C53.0804 62.726 56.216 63.8906 58.3959 62.3975C57.4403 62.0989 56.425 58.8439 56.425 58.8439C56.425 58.8439 58.9932 58.9335 61.2925 57.9181C60.8147 57.2015 58.366 52.9312 58.366 52.9312C60.546 48.8699 63.9801 39.8814 63.2634 38.8064C62.5468 37.7313 50.7512 42.36 50.7512 42.36C45.4954 37.5223 38.866 37.7612 38.866 37.7612C38.866 37.7612 33.5804 27.19 31.6991 27.0705C30.3255 27.0108 26.6823 39.9113 26.2343 41.1356L22.0536 42.1808L23.4273 44.8684L21.6654 45.5552L23.3377 47.6157L20.5904 49.7359L23.1585 51.5276C23.1287 51.5575 25.0697 69.1463 42.0912 66.608Z" fill="#EEA73F"/>
<path opacity="0.2" d="M62.7857 38.8362C62.7857 38.8362 60.2474 47.5559 56.634 53.1999C56.1861 56.216 60.7849 58.6049 61.5016 57.6493C58.814 56.3354 58.6348 52.961 58.6348 52.961C58.6348 52.961 63.2635 44.2711 63.4426 38.8959C63.1739 38.9855 62.7857 38.8362 62.7857 38.8362Z" fill="white"/>
<path opacity="0.2" d="M56.4548 58.5751C56.4548 58.5751 55.4097 58.7841 55.4097 60.1578C55.4097 61.0238 56.9924 62.4572 58.7244 62.1884C58.7244 62.1585 57.3208 62.2183 56.4548 58.5751Z" fill="white"/>
<path opacity="0.5" d="M45.8239 54.693C45.2267 54.0361 44.6891 53.3791 44.6294 52.5131C44.5697 51.5575 44.51 50.4227 43.7037 49.7658C42.5092 48.8102 40.8966 48.4518 39.4334 49.1685C38.4479 49.6463 37.7312 50.5422 36.6263 50.7811C35.611 51.02 34.536 50.3929 33.5207 50.9304C31.9081 51.7964 31.5199 54.0062 31.6991 55.6486C32.2665 60.9641 38.209 63.2336 42.8675 61.9495C44.2412 61.5912 45.9732 60.5759 46.6302 59.2619C47.0781 58.3959 47.4962 57.2612 47.0781 56.3354C46.8093 55.7382 46.3017 55.2305 45.8239 54.693Z" fill="white"/>
<path d="M38.3883 60.755C38.1195 60.755 37.8507 60.7251 37.582 60.6355C36.5667 60.3071 35.8798 59.3515 35.85 58.3063C35.85 58.0674 36.0291 57.8584 36.2979 57.8285C36.5368 57.8285 36.7458 58.0077 36.7757 58.2764C36.8056 58.9633 37.2535 59.5605 37.8806 59.7695C38.4778 59.9786 39.1647 59.7994 39.5827 59.3515C39.7619 59.1723 40.0307 59.1723 40.2099 59.3515C40.389 59.5306 40.389 59.7994 40.2099 59.9786C39.7619 60.4862 39.0751 60.755 38.3883 60.755Z" fill="#351C12"/>
<path opacity="0.2" d="M52.9909 62.5168C52.9909 62.5168 52.1249 62.6662 51.8263 63.8009C51.6172 64.6371 53.1103 66.2198 54.7826 66.1302C54.7826 66.16 52.8714 64.3086 52.9909 62.5168Z" fill="white"/>
<path d="M42.6884 52.9312C42.6287 53.618 41.1057 55.0813 39.8813 54.6333H39.8515C38.6271 54.1854 38.3882 52.2444 38.8362 51.5277C39.314 50.7214 40.6578 51.3186 41.1057 51.4679C42.0613 51.8562 42.7481 52.0652 42.6884 52.9312Z" fill="#351C12"/>
<path d="M35.4916 49.1685C35.3721 49.1685 35.2826 49.1386 35.1631 49.0789C34.8944 48.8997 34.8346 48.5414 35.0138 48.3025C35.4916 47.5858 35.3124 46.6004 34.5957 46.1226C34.2374 45.8837 33.8193 45.7941 33.4012 45.8837C32.9832 45.9732 32.6248 46.2121 32.3859 46.5406C32.2068 46.8094 31.8484 46.8691 31.6095 46.6899C31.3408 46.5108 31.281 46.1524 31.4602 45.9135C31.8783 45.3163 32.4755 44.8982 33.1922 44.7788C33.9089 44.6294 34.6256 44.7788 35.2228 45.1968C36.4472 46.033 36.7757 47.7351 35.9395 48.9595C35.8499 49.0789 35.6708 49.1685 35.4916 49.1685Z" fill="#351C12"/>
<path d="M51.3185 54.1555C51.2887 54.1555 51.2588 54.1555 51.2289 54.1555C50.9303 54.1256 50.6914 53.827 50.7512 53.5284C50.8109 53.1103 50.6914 52.6922 50.4525 52.3637C50.1838 52.0352 49.8254 51.8262 49.4074 51.7665C48.5414 51.647 47.7649 52.2741 47.6455 53.1103C47.6156 53.4089 47.317 53.6478 47.0184 53.5881C46.7198 53.5582 46.4809 53.2596 46.5406 52.961C46.7496 51.4679 48.0934 50.4227 49.5865 50.6317C50.3032 50.7213 50.9303 51.0797 51.3783 51.6769C51.8262 52.2443 52.0054 52.961 51.9158 53.6777C51.8561 53.9464 51.6172 54.1555 51.3185 54.1555Z" fill="#351C12"/>
<path d="M33.67 52.6027C33.5804 52.6027 33.461 52.5728 33.3714 52.5131L27.1003 48.5115C26.8316 48.3324 26.7719 48.0039 26.9212 47.7351C27.1003 47.4664 27.4288 47.4066 27.6976 47.5559L33.9686 51.5575C34.2374 51.7366 34.2971 52.0651 34.1478 52.3339C34.0582 52.5131 33.8791 52.6027 33.67 52.6027Z" fill="#351C12"/>
<path d="M32.2964 53.9764H32.2665L28.474 53.7076C28.1754 53.6778 27.9365 53.409 27.9365 53.1104C27.9664 52.8118 28.2351 52.5729 28.5338 52.5729L32.3263 52.8416C32.6249 52.8715 32.8638 53.1403 32.8638 53.4389C32.8638 53.7375 32.595 53.9764 32.2964 53.9764Z" fill="#351C12"/>
<path d="M53.6478 58.0973C53.618 58.0973 53.5881 58.0973 53.5881 58.0973L46.2122 57.1716C45.9135 57.1417 45.6746 56.8431 45.7344 56.5445C45.7642 56.2459 46.0629 56.007 46.3615 56.0667L53.7374 56.9924C54.0361 57.0223 54.2749 57.3209 54.2152 57.6195C54.1555 57.8883 53.9166 58.0973 53.6478 58.0973Z" fill="#351C12"/>
<path d="M49.5268 61.203C49.4074 61.203 49.3178 61.1731 49.1983 61.1134L46.1225 59.023C45.8538 58.8438 45.794 58.4855 45.9732 58.2466C46.1524 57.9778 46.5107 57.9181 46.7496 58.0973L49.8254 60.1876C50.0942 60.3668 50.1539 60.7252 49.9747 60.9641C49.8851 61.1134 49.706 61.203 49.5268 61.203Z" fill="#351C12"/>
<path opacity="0.5" d="M32.0873 31.8185C31.4602 32.0873 29.6087 37.7611 29.2504 39.4632C29.1907 39.732 29.2803 39.8514 29.6386 39.6125C31.5498 38.3285 34.2374 38.1493 35.8798 38.0896C36.0888 38.0896 36.2979 38.1493 36.0888 37.7909C35.3124 36.5069 32.7144 31.5497 32.0873 31.8185Z" fill="white"/>
<path d="M37.373 57.1118C37.0743 57.1118 36.8056 57.0819 36.507 56.9923C34.7451 56.4847 34.3569 54.7527 34.3868 53.9165C34.3868 53.6179 34.6555 53.379 34.984 53.379C35.2826 53.379 35.5514 53.6478 35.5215 53.9763C35.5215 54.036 35.4917 55.559 36.8354 55.9173C38.1494 56.3055 38.9258 55.3201 39.3439 54.4541C39.4633 54.1853 39.8217 54.036 40.0904 54.1853C40.3592 54.3048 40.5085 54.6631 40.3592 54.9319C39.6724 56.3354 38.5973 57.1118 37.373 57.1118Z" fill="#351C12"/>
<path d="M42.0016 58.9035C41.6133 58.9035 41.1953 58.8139 40.7473 58.6049C39.2542 57.8882 38.7167 56.3354 39.314 54.4839C39.4035 54.1853 39.732 54.0061 40.0306 54.1255C40.3293 54.2151 40.5084 54.5436 40.389 54.8422C40.0904 55.768 40.0306 56.9923 41.255 57.6194C42.5092 58.2167 43.4947 57.1118 43.5245 57.052C43.7336 56.8131 44.0919 56.7833 44.3308 56.9923C44.5697 57.2014 44.5996 57.5597 44.3905 57.7986C44.0023 58.2465 43.1065 58.9035 42.0016 58.9035Z" fill="#351C12"/>
<path opacity="0.3" d="M40.8967 52.1845C40.8369 52.3637 40.4487 52.4234 40.0307 52.2741C39.6126 52.1546 39.2841 51.8859 39.3438 51.7067C39.4035 51.5275 39.7918 51.4678 40.2098 51.6171C40.6279 51.7664 40.9564 52.0053 40.8967 52.1845Z" fill="white"/>
<path d="M41.5835 67.2948C41.4939 67.2948 41.4342 67.2948 41.3446 67.2948C32.3561 66.5781 27.7871 62.3377 25.5176 58.9334C23.3377 55.6187 22.8599 52.4832 22.7703 51.7366L20.3515 50.0046C20.2619 49.9449 20.2021 49.8553 20.2021 49.7358C20.2021 49.6164 20.2619 49.5268 20.3515 49.4671L22.83 47.5858L21.3966 45.794C21.3369 45.7044 21.307 45.585 21.3369 45.4655C21.3668 45.3461 21.4564 45.2864 21.5758 45.2565L22.8002 44.928L21.755 42.33C21.7251 42.2404 21.7251 42.1508 21.755 42.0613C21.8147 41.9717 21.8744 41.9119 21.964 41.8821L25.9655 40.8966C26.085 40.5681 26.294 39.9112 26.5329 39.1049C29.4296 29.9073 30.7734 26.8315 31.7588 26.8315H31.7887C32.3859 26.8614 33.4908 27.4885 36.3277 32.4158C37.6118 34.6554 38.7466 36.8951 39.075 37.5521C39.1049 37.5521 39.1348 37.5521 39.1945 37.5521C40.7772 37.5521 46.242 37.8805 50.8109 42.0314C52.2144 41.5237 60.2473 38.6271 62.6662 38.6271C62.9648 38.6271 63.353 38.657 63.562 38.9556C64.428 40.2994 60.5758 49.6462 58.6348 53.2297C58.9632 53.9165 60.307 56.843 61.4418 57.8583C61.5314 57.9181 61.5613 58.0375 61.5613 58.157C61.5613 58.2764 61.5015 58.366 61.3821 58.4257C59.7098 59.3813 57.8583 59.4112 56.9326 59.3515C57.291 60.1279 58.0077 61.5314 58.7542 62.1585C58.8438 62.2182 58.8737 62.3377 58.8737 62.4571C58.8737 62.5766 58.7841 62.6661 58.6945 62.7259C57.7688 63.2037 56.5444 63.4724 55.1409 63.4724C54.3943 63.4724 53.7672 63.4127 53.379 63.353C53.4686 63.9502 53.7971 65.0551 54.8721 66.0406C54.9617 66.1302 54.9916 66.2197 54.9916 66.3392C54.9617 66.4586 54.902 66.5482 54.7825 66.608C53.7374 67.0559 52.5727 67.2948 51.2887 67.2948C49.1087 67.2948 47.0482 66.6677 45.8836 65.9809C44.8086 66.4586 42.8974 67.2948 41.5835 67.2948ZM21.098 49.706L23.2481 51.2588C23.3377 51.3185 23.3675 51.4081 23.3974 51.4977C23.3974 51.5276 23.7259 54.9916 26.085 58.5452C29.2205 63.2634 34.5061 66.0406 41.3744 66.5781C42.6585 66.6677 44.8086 65.8017 45.6746 65.294C45.794 65.2343 45.9135 65.2343 46.0329 65.294C47.0482 65.9211 49.1087 66.4586 51.2887 66.4586C52.2741 66.4586 53.1998 66.3093 54.036 66.0107C52.6623 64.4877 52.6623 62.8453 52.6623 62.7856C52.6623 62.696 52.7221 62.5766 52.7818 62.5168C52.8714 62.4571 52.9609 62.4273 53.0505 62.4571C53.0505 62.4571 53.9763 62.6363 55.1409 62.6363C56.2458 62.6363 57.2014 62.487 57.9778 62.1585C56.9625 61.0237 56.1263 59.023 56.0965 58.9035C56.0367 58.7841 56.0666 58.6646 56.1562 58.575C56.2458 58.4854 56.3652 58.4257 56.4847 58.4556C56.4847 58.4556 58.6646 58.8139 60.6953 57.8882C59.3813 56.425 58.0375 53.379 57.9778 53.2297C57.9479 53.1401 57.9479 53.0207 57.9778 52.9311C60.4265 48.4219 63.4426 40.1799 62.9946 39.2243C62.9648 39.2243 62.8752 39.1945 62.6662 39.1945C60.1876 39.1945 50.9303 42.5988 50.8407 42.6286C50.7213 42.6585 50.572 42.6585 50.4824 42.5689C46.0628 38.4479 40.7175 38.1493 39.1945 38.1493C39.0153 38.1493 38.8959 38.1493 38.8959 38.1493C38.7466 38.1493 38.6271 38.0896 38.5674 37.9701C36.4472 33.67 32.9533 27.5781 31.7588 27.4288C31.6394 27.4885 31.0421 27.9663 29.5789 31.9678C28.683 34.4464 27.7573 37.343 27.16 39.2542C26.8316 40.2695 26.6225 40.9862 26.5031 41.255C26.4732 41.3446 26.3836 41.4341 26.2642 41.464L22.4717 42.3897L23.487 44.9877C23.5168 45.0773 23.5168 45.1669 23.487 45.2565C23.4571 45.3461 23.3675 45.4058 23.278 45.4357L22.2029 45.7343L23.5467 47.4066C23.6064 47.4663 23.6363 47.5559 23.6064 47.6455C23.6064 47.7351 23.5467 47.8246 23.487 47.8844L21.098 49.706Z" fill="#E78824"/>
<path opacity="0.5" d="M59.9488 42.4793C60.2474 43.0765 57.8584 48.5712 56.9924 50.0941C56.8431 50.333 56.6938 50.3629 56.6042 49.9448C56.007 47.7052 54.1555 45.794 52.9312 44.6592C52.7819 44.5099 52.5728 44.4203 52.9909 44.3009C54.3944 43.8231 59.6203 41.8223 59.9488 42.4793Z" fill="white"/>
<path opacity="0.3" d="M25.9656 40.8369C25.9656 40.8369 22.3523 67.8622 45.8239 65.3239C45.8239 65.3239 36.0889 70.3109 27.6677 59.1424C19.2167 47.974 22.621 41.6731 22.621 41.6731L25.9656 40.8369Z" fill="#A9AFB0"/>
<path d="M45.7642 65.6823C44.3906 65.5031 35.9694 68.4893 29.131 61.0835C24.9503 56.5743 23.8454 49.5567 23.6364 44.5697C23.4871 41.3446 23.9947 39.0153 22.6509 39.1646C21.8446 39.2542 20.5904 39.4035 20.471 40.9564C20.4411 41.4939 19.5452 44.719 19.814 44.6593C18.7091 44.2114 17.9924 37.8507 17.6042 35.3423C16.559 34.9541 15.6034 34.6256 15.0062 35.9993C14.8569 36.3576 14.6777 35.193 14.5583 34.8645C14.1103 33.5506 11.9005 34.0284 11.4227 35.1631C11.0345 36.1187 11.7214 36.8951 10.497 36.2382C8.67541 35.2527 8.16775 37.4326 7.92886 38.7466C7.57051 38.7167 7.03299 38.3285 5.77878 39.1646C5.36071 39.4334 5.42043 41.7029 5.39057 42.2106C5.36071 42.9571 7.98858 52.6325 10.1387 56.425C13.0652 61.5911 16.35 64.428 21.755 66.9365C21.7849 66.9663 31.3707 72.2519 45.7642 65.6823Z" fill="#F2D3C0"/>
<path opacity="0.3" d="M22.1432 39.0751C22.1432 39.0751 20.7397 50.1838 25.6371 58.6647C30.4748 67.0559 38.9258 68.1608 45.7045 65.6524C45.7045 65.6524 31.8484 69.5046 25.8163 55.6187C20.232 42.8078 25.4281 39.4931 22.1432 39.0751Z" fill="white"/>
<path d="M10.3775 48.7206C10.2581 48.7206 10.1386 48.6609 10.0789 48.5414C7.92883 44.8684 7.60034 38.5077 7.60034 38.239C7.60034 38.0598 7.74965 37.8806 7.92883 37.8806C8.108 37.8806 8.19758 38.1494 8.25731 38.3285C8.3469 38.657 8.37676 44.0919 10.6761 48.1831C10.7657 48.3324 10.706 48.5414 10.5567 48.6609C10.497 48.7206 10.4372 48.7206 10.3775 48.7206Z" fill="#351C12"/>
<path d="M13.6624 46.9587C13.5429 46.9587 13.4235 46.899 13.3638 46.7795C11.363 42.987 10.9748 36.8056 10.9748 36.5368C10.9748 36.3576 11.0942 36.1785 11.3033 36.1785C11.4824 36.1785 11.6318 36.3278 11.6616 36.507C11.6616 36.5667 12.0498 42.8079 13.9909 46.4511C14.0805 46.6302 14.0207 46.8094 13.8416 46.899C13.752 46.9587 13.7221 46.9587 13.6624 46.9587Z" fill="#351C12"/>
<path d="M16.5888 45.5253C16.4694 45.5253 16.3201 45.4357 16.2902 45.3163C14.6776 41.4641 14.5283 35.85 14.5283 35.6111C14.5283 35.4319 14.6776 35.193 14.8568 35.193C15.036 35.193 15.3346 35.4618 15.2152 35.6111C15.1256 35.7305 15.3346 41.3147 16.8874 45.0774C16.9472 45.2565 16.8874 45.4357 16.7083 45.5253C16.6784 45.5253 16.6485 45.5253 16.5888 45.5253Z" fill="#351C12"/>
<path opacity="0.3" d="M6.64473 38.8064C6.64473 38.8064 5.68914 38.896 5.5697 39.7023C5.42038 40.5085 5.5697 43.226 6.25653 46.5407C6.94336 49.8554 14.5283 73.9243 38.4181 68.1908C20.5008 70.4006 7.71977 57.0223 6.64473 38.8064Z" fill="#A9AFB0"/>
<path d="M46.033 65.4434C45.9434 65.2643 45.7344 65.2643 45.6448 65.2941C43.9725 65.9212 31.1317 67.922 26.0253 54.6035C23.8752 49.079 23.7857 43.4947 23.7857 43.4649C23.7857 42.8378 23.8155 42.2704 23.8454 41.7926C23.9648 40.0904 24.0246 38.9557 22.2627 38.7466C21.6356 38.6869 21.0981 38.8661 20.68 39.314C19.9633 40.0606 19.6049 41.3745 19.4556 42.4794C19.0376 40.8669 18.4702 38.448 18.2611 36.3577C18.1118 34.9243 17.2458 34.3868 16.4694 34.3868C15.9319 34.3868 15.3645 34.6555 14.9763 35.1035C14.6777 34.4465 14.0804 33.8492 13.0353 33.8492C12.8561 33.8492 12.7068 33.8492 12.4977 33.8791C11.363 34.0881 10.9449 35.1035 10.9151 35.8799C10.6762 35.7306 10.3477 35.6111 9.95946 35.6111C9.66084 35.6111 9.30249 35.6708 8.97401 35.8201C7.83925 36.2681 7.60035 37.7313 7.60035 38.5376C7.42118 38.5077 7.242 38.4779 7.03297 38.4779C6.49545 38.4779 6.01765 38.6571 5.68917 39.0154C5.24124 39.4932 5.0322 40.2398 5.06206 41.2849C5.09193 41.9718 5.36069 47.9143 8.70525 54.5437C12.4679 62.069 18.4105 66.7872 26.3538 68.579C28.2351 68.997 30.206 69.2359 32.2366 69.2359C38.8661 69.2359 45.376 66.2497 45.9135 65.8914C45.9135 65.8914 46.1524 65.7122 46.033 65.4434ZM44.4503 66.1004C41.7328 67.3247 36.9847 68.5491 32.2366 68.5491C30.2657 68.5491 28.3546 68.3401 26.5031 67.922C18.7688 66.1601 12.9755 61.5613 9.30249 54.275C6.01765 47.765 5.7489 41.9718 5.71903 41.2849C5.68917 40.4488 5.83848 39.8515 6.16697 39.4932C6.376 39.2842 6.67462 39.1647 7.03297 39.1647C7.4809 39.1647 7.86911 39.314 7.86911 39.314C7.98856 39.3737 8.10801 39.3439 8.22746 39.2543C8.31704 39.1647 7.98856 36.9549 9.24277 36.4473C9.51153 36.3278 9.75043 36.2979 9.98932 36.2979C10.7359 36.2979 11.0046 36.925 11.0046 36.925C11.0644 37.0744 11.2137 37.1639 11.363 37.1341C11.5123 37.1042 11.6317 36.9848 11.6616 36.8355C11.6616 36.7459 11.6616 36.6264 11.6616 36.4771C11.6019 35.5813 11.6317 34.7152 12.6471 34.5361C12.7964 34.5062 12.9457 34.5062 13.0651 34.5062C13.2144 34.5062 14.5582 34.5659 14.618 36.1785C14.618 36.3577 14.7673 36.507 14.9464 36.507C15.1256 36.507 15.2152 36.4473 15.2451 36.2681C15.2749 35.4021 15.6333 35.0139 16.5291 35.0139C17.1562 35.0139 17.5445 35.4917 17.634 36.3577C17.9924 39.9411 19.3661 44.3906 19.3959 44.4503C19.4556 44.5996 19.6049 44.7191 19.7841 44.6892C19.9633 44.6594 20.0827 44.51 20.0827 44.3607C20.0827 44.3309 20.0827 40.9564 21.2474 39.7321C21.546 39.4335 21.8745 39.314 22.2925 39.3439C23.3676 39.4633 23.3676 39.8515 23.2481 41.6731C23.2183 42.1808 23.1884 42.7482 23.1884 43.4051C23.1884 43.4649 23.2183 49.1685 25.4579 54.7826C28.4143 62.278 33.8791 66.2497 41.255 66.2497C41.8821 66.2497 43.2857 66.2198 44.6593 65.8914C44.7788 65.8914 44.7788 65.9511 44.4503 66.1004Z" fill="#351C12"/>
<path d="M49.1685 66.3392C45.9733 65.7718 44.7788 64.2489 44.7489 64.219C44.6295 64.0697 44.4204 64.0398 44.2711 64.1593C44.1218 64.2787 44.092 64.4878 44.2114 64.6371C44.2711 64.6968 45.5253 66.2795 49.1387 66.9962L49.1685 66.3392Z" fill="#E78824"/>
</svg>
