<?xml version="1.0" standalone="no"?>
<!DOCTYPE svg PUBLIC "-//W3C//DTD SVG 20010904//EN"
 "http://www.w3.org/TR/2001/REC-SVG-20010904/DTD/svg10.dtd">
<svg version="1.0" xmlns="http://www.w3.org/2000/svg"
 width="560.000000pt" height="560.000000pt" viewBox="0 0 560.000000 560.000000"
 preserveAspectRatio="xMidYMid meet">
<metadata>
Created by potrace 1.14, written by Peter Selinger 2001-2017
</metadata>
<g transform="translate(0.000000,560.000000) scale(0.100000,-0.100000)"
fill="#000000" stroke="none">
<path d="M4034 5542 c-6 -4 -20 -23 -31 -42 -52 -84 -184 -180 -332 -240 -42
-17 -85 -35 -96 -40 -39 -19 -282 -81 -390 -100 -156 -28 -163 -29 -230 -35
-33 -3 -79 -8 -102 -11 -24 -2 -75 -7 -115 -9 -139 -9 -223 -16 -238 -20 -8
-2 -35 -7 -60 -9 -25 -3 -88 -15 -140 -26 -52 -12 -104 -23 -116 -26 -91 -18
-324 -106 -469 -177 -255 -124 -459 -271 -660 -472 -125 -125 -138 -140 -196
-215 -18 -25 -37 -47 -40 -50 -29 -25 -185 -284 -246 -410 -87 -178 -172 -411
-197 -540 -2 -14 -9 -45 -15 -70 -5 -25 -13 -67 -17 -95 -3 -27 -8 -52 -9 -55
-23 -39 -22 -590 0 -630 2 -3 7 -33 10 -65 4 -33 9 -63 12 -67 2 -4 6 -22 8
-40 10 -79 92 -338 146 -466 10 -23 18 -45 18 -47 0 -12 129 -257 173 -328 26
-43 48 -82 48 -86 0 -4 8 -16 18 -27 10 -10 28 -36 41 -57 13 -21 29 -43 35
-50 7 -7 15 -17 17 -24 14 -38 238 -265 349 -353 36 -28 67 -56 68 -61 2 -5 9
-9 16 -9 7 0 21 -8 32 -18 38 -36 226 -154 336 -212 108 -56 312 -150 328
-150 4 0 24 -7 44 -15 20 -8 38 -15 41 -16 3 0 24 -7 47 -15 24 -9 51 -17 61
-19 10 -2 27 -7 37 -10 10 -3 29 -8 42 -11 13 -3 32 -7 43 -9 197 -44 251 -49
470 -50 163 0 256 6 355 21 30 4 55 9 155 28 11 2 58 14 105 26 47 12 90 23
95 24 6 1 15 4 20 7 6 4 24 9 40 13 52 12 322 114 342 129 7 5 21 6 30 1 10
-4 20 -8 23 -9 3 -1 23 -9 45 -19 50 -22 164 -52 235 -61 53 -8 199 -8 230 -2
8 2 36 7 63 12 26 4 47 12 47 18 0 6 3 8 6 4 9 -9 62 13 68 29 4 9 -10 35 -33
62 -41 49 -74 109 -84 153 l-7 26 107 -2 c59 -1 137 4 175 11 81 15 158 48
158 66 0 7 -16 31 -36 53 -34 38 -120 183 -113 190 2 1 38 5 79 8 113 9 171
23 243 59 44 22 48 47 13 80 -26 26 -109 162 -176 290 l-29 56 53 109 c29 60
57 120 61 133 4 14 13 32 21 41 7 8 15 24 17 35 1 10 5 24 9 29 10 17 115 278
128 320 7 22 15 45 19 50 3 6 6 12 6 15 1 3 9 30 20 60 10 30 20 60 21 65 1 6
9 37 18 70 44 161 40 228 -14 240 -44 10 -213 -15 -274 -41 -19 -7 -19 -6 1
27 28 46 69 122 72 131 1 4 10 27 20 51 33 78 95 270 116 362 34 148 39 192
40 340 0 194 -17 279 -81 410 -49 101 -85 145 -141 173 -71 37 -38 35 -763 45
l-235 4 -2 114 c-2 133 -11 313 -18 349 -13 68 -24 110 -43 156 l-21 52 39 17
c44 20 112 81 157 140 66 88 117 212 98 238 -15 20 -34 17 -81 -14 -75 -50
-96 -61 -150 -79 l-54 -19 24 48 c13 26 32 74 41 106 9 33 19 67 22 75 15 38
33 168 33 237 0 84 -25 136 -56 115z"/>
</g>
</svg>
