<svg width="16" height="16" viewBox="0 0 16 16" fill="none" xmlns="http://www.w3.org/2000/svg">
<path d="M13.0601 4.46065C12.3955 4.31451 11.7944 3.96161 11.3428 3.45258C10.8913 2.94355 10.6126 2.30456 10.5468 1.62732V1.33398H8.24676V10.4473C8.24723 10.8517 8.12045 11.246 7.88439 11.5743C7.64833 11.9026 7.31495 12.1483 6.93147 12.2766C6.548 12.405 6.13387 12.4094 5.74775 12.2892C5.36163 12.1691 5.02309 11.9305 4.7801 11.6073C4.5624 11.3212 4.42909 10.9799 4.39525 10.622C4.36141 10.2641 4.42839 9.90382 4.58862 9.58198C4.74884 9.26015 4.99592 8.98956 5.30191 8.80082C5.60789 8.61209 5.96058 8.51273 6.3201 8.51398C6.51892 8.51285 6.71676 8.54207 6.90676 8.60065V6.26732C6.68565 6.23993 6.46284 6.22879 6.2401 6.23398C5.41964 6.25591 4.62338 6.51661 3.94882 6.98416C3.27426 7.45172 2.75069 8.10584 2.44221 8.86641C2.13374 9.62699 2.05375 10.461 2.21204 11.2664C2.37033 12.0717 2.76004 12.8134 3.33343 13.4007C3.92109 13.9981 4.67309 14.4074 5.49389 14.5765C6.31469 14.7456 7.16724 14.6669 7.9432 14.3504C8.71917 14.0338 9.38352 13.4938 9.85185 12.7988C10.3202 12.1039 10.5713 11.2854 10.5734 10.4473V5.78065C11.5011 6.44328 12.6134 6.79775 13.7534 6.79398V4.52732C13.5295 4.52824 13.3061 4.5059 13.0868 4.46065H13.0601Z" fill="white"/>
</svg>
