<svg width="16" height="16" viewBox="0 0 16 16" fill="none" xmlns="http://www.w3.org/2000/svg">
<path fill-rule="evenodd" clip-rule="evenodd" d="M15 8.04211C15 4.17649 11.8656 1.04211 8 1.04211C4.13438 1.04211 1 4.17649 1 8.04211C1 11.5359 3.55938 14.4318 6.90625 14.9574V10.0662H5.12844V8.04211H6.90625V6.49993C6.90625 4.74586 7.95156 3.77618 9.55031 3.77618C10.3162 3.77618 11.1175 3.91305 11.1175 3.91305V5.63586H10.2344C9.36531 5.63586 9.09344 6.17524 9.09344 6.72961V8.04211H11.0347L10.7247 10.0662H9.09375V14.9581C12.4406 14.4327 15 11.5368 15 8.04211V8.04211Z" fill="white"/>
</svg>
