<svg width="17" height="16" viewBox="0 0 17 16" fill="none" xmlns="http://www.w3.org/2000/svg">
<path d="M11.2498 2.16656C12.0227 2.16887 12.7633 2.47692 13.3098 3.02345C13.8563 3.56997 14.1644 4.31054 14.1667 5.08344V10.9166C14.1644 11.6895 13.8563 12.43 13.3098 12.9766C12.7633 13.5231 12.0227 13.8311 11.2498 13.8334H5.41669C4.6438 13.8311 3.90322 13.5231 3.3567 12.9766C2.81018 12.43 2.50212 11.6895 2.49981 10.9166V5.08344C2.50212 4.31054 2.81018 3.56997 3.3567 3.02345C3.90322 2.47692 4.6438 2.16887 5.41669 2.16656H11.2498V2.16656ZM11.2498 1H5.41669C3.17075 1 1.33325 2.8375 1.33325 5.08344V10.9166C1.33325 13.1625 3.17075 15 5.41669 15H11.2498C13.4958 15 15.3333 13.1625 15.3333 10.9166V5.08344C15.3333 2.8375 13.4958 1 11.2498 1V1Z" fill="white"/>
<path d="M12.1248 5.08337C11.9517 5.08337 11.7826 5.03206 11.6387 4.93591C11.4948 4.83976 11.3826 4.70311 11.3164 4.54322C11.2502 4.38334 11.2329 4.2074 11.2666 4.03767C11.3004 3.86794 11.3837 3.71203 11.5061 3.58966C11.6285 3.46728 11.7844 3.38395 11.9541 3.35019C12.1238 3.31643 12.2998 3.33375 12.4597 3.39998C12.6195 3.46621 12.7562 3.57836 12.8523 3.72225C12.9485 3.86614 12.9998 4.03532 12.9998 4.20837C13.0001 4.32335 12.9776 4.43724 12.9337 4.54351C12.8898 4.64979 12.8254 4.74634 12.7441 4.82764C12.6628 4.90894 12.5662 4.97339 12.4599 5.01727C12.3537 5.06116 12.2398 5.08362 12.1248 5.08337V5.08337ZM8.33325 5.6665C8.79476 5.6665 9.2459 5.80335 9.62964 6.05975C10.0134 6.31616 10.3124 6.68059 10.4891 7.10697C10.6657 7.53335 10.7119 8.00252 10.6218 8.45517C10.5318 8.90781 10.3096 9.32359 9.98324 9.64992C9.6569 9.97626 9.24112 10.1985 8.78848 10.2885C8.33584 10.3786 7.86666 10.3324 7.44028 10.1558C7.0139 9.97914 6.64947 9.68006 6.39307 9.29632C6.13667 8.91259 5.99981 8.46145 5.99981 7.99994C6.00048 7.38127 6.24653 6.78814 6.68399 6.35068C7.12145 5.91322 7.71459 5.66716 8.33325 5.6665V5.6665ZM8.33325 4.49994C7.64102 4.49994 6.96433 4.70521 6.38876 5.08979C5.81318 5.47438 5.36458 6.021 5.09967 6.66054C4.83477 7.30009 4.76546 8.00382 4.9005 8.68275C5.03555 9.36169 5.3689 9.98533 5.85838 10.4748C6.34786 10.9643 6.9715 11.2976 7.65043 11.4327C8.32937 11.5677 9.0331 11.4984 9.67264 11.2335C10.3122 10.9686 10.8588 10.52 11.2434 9.94443C11.628 9.36886 11.8332 8.69217 11.8332 7.99994C11.8332 7.07168 11.4645 6.18144 10.8081 5.52506C10.1517 4.86869 9.26151 4.49994 8.33325 4.49994V4.49994Z" fill="white"/>
</svg>
