<svg width="16" height="16" viewBox="0 0 16 16" fill="none" xmlns="http://www.w3.org/2000/svg">
<path d="M7.98995 8.22798C6.10662 8.22798 4.54128 6.66398 4.54128 4.81332C4.54128 2.89865 6.10662 1.33398 7.99062 1.33398C9.93862 1.33398 11.4393 2.89798 11.4393 4.81332C11.4359 5.72202 11.0719 6.59221 10.4272 7.23263C9.78256 7.87306 8.90999 8.23131 8.00128 8.22865L7.98995 8.22798V8.22798ZM7.98995 3.34532C7.19262 3.34532 6.58595 4.01532 6.58595 4.81398C6.58595 5.61132 7.19262 6.21798 7.99062 6.21798C8.82062 6.21798 9.39528 5.61132 9.39528 4.81398C9.39595 4.01465 8.82062 3.34532 7.98995 3.34532ZM9.36328 11.0693L11.312 12.9527C11.6953 13.3667 11.6953 13.9733 11.312 14.3567C10.8973 14.7707 10.258 14.7707 9.93862 14.3567L7.99062 12.4413L6.10662 14.3567C5.91528 14.548 5.65928 14.6433 5.37128 14.6433C5.14795 14.6433 4.89262 14.5473 4.66862 14.3567C4.28528 13.9733 4.28528 13.3667 4.66862 12.952L6.64862 11.0687C5.93357 10.8569 5.24764 10.5571 4.60662 10.176C4.12728 9.92065 4.03195 9.28265 4.28728 8.80332C4.60662 8.32465 5.18128 8.19732 5.69262 8.51665C6.38502 8.93919 7.18047 9.16274 7.99162 9.16274C8.80276 9.16274 9.59822 8.93919 10.2906 8.51665C10.802 8.19732 11.408 8.32465 11.6953 8.80332C11.9833 9.28265 11.8546 9.91998 11.4073 10.176C10.8013 10.5593 10.0986 10.8467 9.36395 11.07L9.36328 11.0693V11.0693Z" fill="white"/>
</svg>
