<svg width="12" height="12" viewBox="0 0 12 12" fill="none" xmlns="http://www.w3.org/2000/svg">
<path d="M11.4936 4.28324C11.3635 3.9741 11.1474 3.75121 10.8685 3.63895L10.8648 3.63754C10.7378 3.58782 10.6027 3.56238 10.4663 3.56254H10.4513C9.81291 3.57215 9.16111 4.11473 8.82971 4.91278C8.58666 5.49637 8.55877 6.12403 8.75518 6.59184C8.88502 6.90121 9.10158 7.1241 9.38166 7.23637L9.38471 7.23754C9.51166 7.28723 9.64681 7.31267 9.78314 7.31254C10.4277 7.31254 11.0863 6.76996 11.4238 5.96137C11.6638 5.37848 11.6903 4.75129 11.4936 4.28324ZM8.94268 7.72527C8.57447 7.50402 8.22643 7.29473 7.99908 6.91879C7.3719 5.87817 6.99314 5.25004 6.0001 5.25004C5.00705 5.25004 4.62736 5.87817 3.99877 6.91879C3.77096 7.2952 3.42221 7.50473 3.05283 7.72692C2.62932 7.98145 2.19174 8.24442 2.00283 8.76192C1.92939 8.94847 1.8924 9.14737 1.89385 9.34785C1.89385 10.1904 2.5501 10.876 3.35635 10.876C3.77236 10.876 4.2151 10.7318 4.68361 10.5793C5.13408 10.4325 5.59979 10.2809 6.00244 10.2809C6.4051 10.2809 6.86963 10.4325 7.31846 10.5793C7.78604 10.7309 8.22666 10.875 8.64385 10.875C9.44893 10.875 10.104 10.1895 10.104 9.34692C10.1047 9.14628 10.0669 8.94738 9.99268 8.76098C9.80377 8.24301 9.36596 7.97981 8.94268 7.72527ZM3.51572 4.42621C3.79463 4.77614 4.14854 4.96879 4.51229 4.96879C4.56194 4.96879 4.61153 4.96511 4.66065 4.95778C5.41932 4.84621 5.89205 3.92043 5.7369 2.8484C5.67197 2.3977 5.49854 1.97793 5.2501 1.66668C4.97166 1.31746 4.61729 1.12504 4.25377 1.12504C4.20411 1.12504 4.15452 1.12873 4.10541 1.13606C3.34674 1.24762 2.874 2.1734 3.02916 3.24543C3.09385 3.69543 3.26729 4.11473 3.51572 4.42621ZM7.33979 4.95778C7.3889 4.96511 7.43849 4.96879 7.48814 4.96879C7.85213 4.96879 8.2058 4.77614 8.48471 4.42621C8.73291 4.11473 8.90541 3.69543 8.97104 3.24496C9.12619 2.1734 8.65346 1.24762 7.89479 1.13559C7.84567 1.12826 7.79608 1.12457 7.74643 1.12457C7.38291 1.12504 7.02854 1.31746 6.7501 1.66668C6.50166 1.97793 6.32822 2.3977 6.26354 2.84887C6.10838 3.92043 6.58111 4.84621 7.33979 4.95778ZM2.61549 7.23754L2.61877 7.23637C2.89838 7.1241 3.11471 6.90145 3.24432 6.59231C3.44072 6.12356 3.41307 5.4966 3.17049 4.91301C2.83463 4.10535 2.17627 3.56254 1.53244 3.56254C1.3961 3.56234 1.26094 3.58779 1.134 3.63754L1.13072 3.63871C0.851817 3.75004 0.635489 3.97363 0.505879 4.28278C0.309473 4.75153 0.337129 5.37848 0.579707 5.96207C0.915567 6.76973 1.57393 7.31254 2.21775 7.31254C2.35386 7.31265 2.48877 7.28721 2.61549 7.23754Z" fill="#6F9C1F"/>
</svg>
