<svg width="32" height="32" viewBox="0 0 32 32" fill="none" xmlns="http://www.w3.org/2000/svg">
<circle cx="16" cy="16" r="16" fill="#EEA640"/>
<path fill-rule="evenodd" clip-rule="evenodd" d="M23 16.0421C23 12.1765 19.8656 9.04211 16 9.04211C12.1344 9.04211 9 12.1765 9 16.0421C9 19.5359 11.5594 22.4318 14.9062 22.9574V18.0662H13.1284V16.0421H14.9062V14.4999C14.9062 12.7459 15.9516 11.7762 17.5503 11.7762C18.3162 11.7762 19.1175 11.9131 19.1175 11.9131V13.6359H18.2344C17.3653 13.6359 17.0934 14.1752 17.0934 14.7296V16.0421H19.0347L18.7247 18.0662H17.0938V22.9581C20.4406 22.4327 23 19.5368 23 16.0421Z" fill="white"/>
</svg>
