<svg width="33" height="32" viewBox="0 0 33 32" fill="none" xmlns="http://www.w3.org/2000/svg">
<circle cx="16.6667" cy="16" r="16" fill="#EEA640"/>
<path d="M16.99 16.228C15.1066 16.228 13.5413 14.664 13.5413 12.8133C13.5413 10.8987 15.1066 9.33398 16.9906 9.33398C18.9386 9.33398 20.4393 10.898 20.4393 12.8133C20.4359 13.722 20.0719 14.5922 19.4272 15.2326C18.7826 15.8731 17.91 16.2313 17.0013 16.2287L16.99 16.228ZM16.99 11.3453C16.1926 11.3453 15.586 12.0153 15.586 12.814C15.586 13.6113 16.1926 14.218 16.9906 14.218C17.8206 14.218 18.3953 13.6113 18.3953 12.814C18.396 12.0147 17.8206 11.3453 16.99 11.3453ZM18.3633 19.0693L20.312 20.9527C20.6953 21.3667 20.6953 21.9733 20.312 22.3567C19.8973 22.7707 19.258 22.7707 18.9386 22.3567L16.9906 20.4413L15.1066 22.3567C14.9153 22.548 14.6593 22.6433 14.3713 22.6433C14.148 22.6433 13.8926 22.5473 13.6686 22.3567C13.2853 21.9733 13.2853 21.3667 13.6686 20.952L15.6486 19.0687C14.9336 18.8569 14.2476 18.5571 13.6066 18.176C13.1273 17.9207 13.032 17.2827 13.2873 16.8033C13.6066 16.3247 14.1813 16.1973 14.6926 16.5167C15.385 16.9392 16.1805 17.1627 16.9916 17.1627C17.8028 17.1627 18.5982 16.9392 19.2906 16.5167C19.802 16.1973 20.408 16.3247 20.6953 16.8033C20.9833 17.2827 20.8546 17.92 20.4073 18.176C19.8013 18.5593 19.0986 18.8467 18.364 19.07L18.3633 19.0693Z" fill="white"/>
</svg>
