<svg width="12" height="12" viewBox="0 0 12 12" fill="none" xmlns="http://www.w3.org/2000/svg">
<path d="M11.4935 4.28324C11.3634 3.9741 11.1473 3.75121 10.8684 3.63895L10.8647 3.63754C10.7377 3.58782 10.6026 3.56238 10.4662 3.56254H10.4512C9.81279 3.57215 9.16099 4.11473 8.82959 4.91278C8.58654 5.49637 8.55865 6.12403 8.75505 6.59184C8.8849 6.90121 9.10146 7.1241 9.38154 7.23637L9.38459 7.23754C9.51154 7.28723 9.64669 7.31267 9.78302 7.31254C10.4276 7.31254 11.0861 6.76996 11.4236 5.96137C11.6636 5.37848 11.6901 4.75129 11.4935 4.28324ZM8.94255 7.72527C8.57435 7.50402 8.2263 7.29473 7.99896 6.91879C7.37177 5.87817 6.99302 5.25004 5.99998 5.25004C5.00693 5.25004 4.62724 5.87817 3.99865 6.91879C3.77084 7.2952 3.42209 7.50473 3.05271 7.72692C2.62919 7.98145 2.19162 8.24442 2.00271 8.76192C1.92927 8.94847 1.89228 9.14737 1.89373 9.34785C1.89373 10.1904 2.54998 10.876 3.35623 10.876C3.77224 10.876 4.21498 10.7318 4.68349 10.5793C5.13396 10.4325 5.59966 10.2809 6.00232 10.2809C6.40498 10.2809 6.86951 10.4325 7.31834 10.5793C7.78591 10.7309 8.22654 10.875 8.64373 10.875C9.4488 10.875 10.1039 10.1895 10.1039 9.34692C10.1045 9.14628 10.0668 8.94738 9.99255 8.76098C9.80365 8.24301 9.36584 7.97981 8.94255 7.72527ZM3.5156 4.42621C3.79451 4.77614 4.14841 4.96879 4.51216 4.96879C4.56182 4.96879 4.61141 4.96511 4.66052 4.95778C5.4192 4.84621 5.89193 3.92043 5.73677 2.8484C5.67185 2.3977 5.49841 1.97793 5.24998 1.66668C4.97154 1.31746 4.61716 1.12504 4.25365 1.12504C4.20399 1.12504 4.1544 1.12873 4.10529 1.13606C3.34662 1.24762 2.87388 2.1734 3.02904 3.24543C3.09373 3.69543 3.26716 4.11473 3.5156 4.42621ZM7.33966 4.95778C7.38878 4.96511 7.43837 4.96879 7.48802 4.96879C7.85201 4.96879 8.20568 4.77614 8.48459 4.42621C8.73279 4.11473 8.90529 3.69543 8.97091 3.24496C9.12607 2.1734 8.65334 1.24762 7.89466 1.13559C7.84555 1.12826 7.79596 1.12457 7.7463 1.12457C7.38279 1.12504 7.02841 1.31746 6.74998 1.66668C6.50154 1.97793 6.3281 2.3977 6.26341 2.84887C6.10826 3.92043 6.58099 4.84621 7.33966 4.95778ZM2.61537 7.23754L2.61865 7.23637C2.89826 7.1241 3.11459 6.90145 3.24419 6.59231C3.4406 6.12356 3.41294 5.4966 3.17037 4.91301C2.83451 4.10535 2.17615 3.56254 1.53232 3.56254C1.39598 3.56234 1.26082 3.58779 1.13388 3.63754L1.1306 3.63871C0.851695 3.75004 0.635367 3.97363 0.505757 4.28278C0.309351 4.75153 0.337007 5.37848 0.579585 5.96207C0.915445 6.76973 1.5738 7.31254 2.21763 7.31254C2.35374 7.31265 2.48865 7.28721 2.61537 7.23754Z" fill="#6F9C1F"/>
</svg>
