<svg width="117" height="72" viewBox="0 0 117 72" fill="none" xmlns="http://www.w3.org/2000/svg">
<g clip-path="url(#clip0_154_3)">
<path d="M117 55.8124C117 57.6639 115.477 59.1869 113.625 59.1869H63.7257C61.8743 59.1869 60.3513 57.6639 60.3513 55.8124V29.2052C60.3513 27.3538 61.8743 25.8308 63.7257 25.8308H113.655C115.507 25.8308 117.03 27.3538 117.03 29.2052V55.8124H117Z" fill="#8CBD3B"/>
<path d="M33.0275 71.9379C31.7135 71.9379 30.4294 71.8483 29.1454 71.6692C19.918 71.2809 10.5412 64.5022 6.42026 58.2909C-4.83778 41.4188 1.19438 27.294 5.79316 20.3958C11.3774 11.9448 21.2916 6.45017 31.5941 6.00224C37.7457 5.73348 45.3008 3.67299 46.8238 1.10484C47.3016 0.268701 47.7495 -0.0299205 48.5259 -5.83557e-05C49.9593 0.0895282 51.4524 2.20974 50.2579 5.76334C53.0948 5.13623 52.9157 7.76411 52.7663 8.30163C52.3184 10.0336 51.1837 12.0344 49.4815 13.2886C50.019 15.1102 50.0489 17.3499 50.0489 19.2013C51.2135 19.2013 58.5298 19.3506 58.7388 19.3506C59.4853 19.3506 61.7549 19.3506 63.3077 21.3813C66.1147 25.0543 65.7265 30.7878 64.3827 34.9088C64.2932 35.2373 63.9647 36.4617 63.4271 37.8353C63.457 37.8353 63.4869 37.8353 63.5167 37.8353C64.8307 37.8353 65.4876 38.4326 65.8161 38.9402C66.3536 39.7764 66.6821 41.0604 64.5918 46.7342C63.666 49.2128 62.4118 52.1393 61.3965 54.1699C62.1729 55.7526 62.9493 57.0666 63.4271 57.4846C63.9049 57.9326 64.1737 58.5597 64.0841 59.2166C64.0244 59.8736 63.6362 60.441 63.0688 60.7695C62.2625 61.2174 61.4264 61.516 60.65 61.6952C60.6798 61.7251 60.7097 61.7549 60.7395 61.7549C61.2472 62.2028 61.516 62.8598 61.4264 63.5168C61.3368 64.1738 60.9486 64.771 60.3513 65.0696C59.4555 65.5474 58.3804 65.846 57.1561 65.9356C57.4547 66.3537 57.604 66.9211 57.5144 67.4287C57.395 68.1156 56.9471 68.6829 56.32 68.9517C55.0657 69.5191 53.6622 69.7878 52.1392 69.7878C50.019 69.7878 48.078 69.2802 46.7641 68.6829C44.4945 69.7878 38.8207 71.9379 33.0275 71.9379Z" fill="#8CBD3B"/>
<path d="M73.8491 42.7626C73.7296 43.0314 73.5504 43.2703 73.3414 43.4495C73.1324 43.6287 72.8636 43.778 72.5948 43.8974C72.3261 43.987 72.0275 44.0467 71.699 44.0467H68.653C68.5634 44.0467 68.4739 44.0169 68.444 43.987C68.4141 43.9273 68.3843 43.8675 68.3843 43.8078V36.8201C68.3843 36.7305 68.4141 36.6708 68.444 36.6409C68.4739 36.5812 68.5336 36.5812 68.653 36.5812H71.5198C72.2962 36.5812 72.8636 36.7604 73.2817 37.1486C73.6699 37.5069 73.8789 38.0146 73.8789 38.6715C73.8789 38.7611 73.8789 38.8806 73.8491 39C73.8192 39.1195 73.7893 39.2688 73.7296 39.3882C73.6699 39.5077 73.5803 39.657 73.4907 39.7764C73.3713 39.8959 73.2518 40.0153 73.0726 40.1049V40.1646C73.2817 40.2542 73.4608 40.3737 73.6102 40.4931C73.7296 40.6424 73.8491 40.7917 73.9088 40.9411C73.9685 41.1202 74.0282 41.2695 74.0581 41.4188C74.0879 41.5682 74.088 41.7175 74.088 41.8369C74.0581 42.1654 73.9685 42.4939 73.8491 42.7626ZM71.8184 38.2535C71.699 38.1041 71.4899 38.0444 71.2212 38.0444H70.176V39.4479H71.251C71.4899 39.4479 71.6691 39.3882 71.7886 39.2688C71.908 39.1493 71.9976 38.9702 71.9976 38.7611C71.9976 38.5521 71.9379 38.3729 71.8184 38.2535ZM71.9976 41.1202C71.8483 40.9411 71.6393 40.8813 71.3406 40.8813H70.176V42.5237H71.3406C71.6691 42.5237 71.908 42.4342 72.0275 42.2849C72.1469 42.1355 72.2066 41.9265 72.2066 41.7175C72.2066 41.5084 72.1469 41.2994 71.9976 41.1202Z" fill="white"/>
<path d="M75.8499 36.6409C75.8798 36.5812 75.9395 36.5812 76.0589 36.5812H80.5383C80.6876 36.5812 80.7772 36.6708 80.7772 36.8201V37.8354C80.7772 37.8951 80.7473 37.9548 80.7174 38.0146C80.6876 38.0444 80.6279 38.0743 80.5084 38.0743H77.5819V39.4479H79.732C79.9112 39.4479 80.0008 39.5375 80.0008 39.6868V40.7022C80.0008 40.7619 79.9709 40.8216 79.941 40.8813C79.9112 40.9411 79.8514 40.9411 79.732 40.9411H77.5819V42.5536H80.5383C80.7174 42.5536 80.7772 42.6432 80.7772 42.7925V43.8078C80.7772 43.8675 80.7473 43.9273 80.7174 43.9571C80.6876 43.987 80.6279 44.0169 80.5084 44.0169H75.9992C75.9096 44.0169 75.8499 43.987 75.7902 43.9571C75.7603 43.8974 75.7305 43.8675 75.7305 43.778V36.7902C75.7902 36.7305 75.8201 36.6708 75.8499 36.6409Z" fill="white"/>
<path d="M84.5099 43.9571C84.4801 44.0169 84.4203 44.0467 84.3009 44.0467H82.9869C82.8078 44.0467 82.748 43.9571 82.748 43.8078V36.8201C82.748 36.7604 82.7779 36.7006 82.8078 36.6409C82.8376 36.5812 82.8974 36.5812 83.0168 36.5812H85.6148C85.9732 36.5812 86.3016 36.6409 86.6003 36.7305C86.8989 36.8201 87.1677 36.9694 87.4066 37.1486C87.6454 37.3277 87.8246 37.5965 87.9441 37.8653C88.0635 38.1639 88.1531 38.4924 88.1531 38.8806C88.1531 39.1493 88.1232 39.4181 88.0337 39.6868C87.9739 39.9556 87.8246 40.2244 87.6454 40.4633C87.4663 40.7022 87.1975 40.8813 86.869 41.0605C86.5405 41.2098 86.1225 41.2994 85.585 41.2994H84.5099V43.8078C84.5398 43.8377 84.5099 43.8974 84.5099 43.9571ZM86.0628 38.2535C85.8836 38.1041 85.6447 38.0444 85.3461 38.0444H84.5398V39.8362H85.3759C85.6745 39.8362 85.9134 39.7466 86.0628 39.5973C86.2419 39.4479 86.3016 39.209 86.3016 38.9104C86.3016 38.6417 86.2121 38.4028 86.0628 38.2535Z" fill="white"/>
<path d="M93.797 36.6409C93.8269 36.5812 93.8866 36.5812 93.9762 36.5812H95.2901C95.4096 36.5812 95.4693 36.611 95.4992 36.6708C95.529 36.7305 95.529 36.7902 95.529 36.8499V43.8377C95.529 43.8974 95.529 43.9571 95.4992 44.0169C95.4693 44.0766 95.4096 44.1064 95.2901 44.1064H93.9762C93.797 44.1064 93.7373 44.0169 93.7373 43.8675V40.9112H91.5574V43.778C91.5574 43.8377 91.5574 43.8974 91.5275 43.9571C91.4976 44.0169 91.4379 44.0467 91.3185 44.0467H90.0045C89.8253 44.0467 89.7656 43.9571 89.7656 43.8078V36.8201C89.7656 36.7305 89.7955 36.6708 89.8253 36.6409C89.8552 36.5812 89.9149 36.5812 90.0045 36.5812H91.3185C91.4379 36.5812 91.4976 36.611 91.5275 36.6708C91.5574 36.7305 91.5574 36.7902 91.5574 36.8499V39.4479H93.7373V36.8499C93.7373 36.7305 93.7672 36.6708 93.797 36.6409Z" fill="white"/>
<path d="M97.7985 36.5513H99.0826C99.2319 36.5513 99.3215 36.6409 99.3215 36.7902V39.3583H100.516C101.053 39.3583 101.472 39.418 101.83 39.5673C102.158 39.7167 102.427 39.8958 102.636 40.1347C102.845 40.3736 102.965 40.6125 103.054 40.9111C103.144 41.1799 103.174 41.4487 103.174 41.7174C103.174 42.1056 103.114 42.4341 102.965 42.7327C102.815 43.0314 102.636 43.2703 102.397 43.4494C102.158 43.6286 101.89 43.7779 101.561 43.8675C101.233 43.9571 100.904 44.0168 100.546 44.0168H97.8284C97.7089 44.0168 97.6492 43.987 97.6193 43.9571C97.5895 43.8974 97.5596 43.8675 97.5596 43.7779V36.7902C97.5298 36.6409 97.6193 36.5513 97.7985 36.5513ZM101.083 41.0306C100.904 40.8813 100.695 40.8216 100.397 40.8216H99.2916V42.5834H100.337C100.635 42.5834 100.844 42.5237 101.024 42.3445C101.203 42.1952 101.292 41.9862 101.292 41.7174C101.352 41.4188 101.263 41.1799 101.083 41.0306ZM103.89 36.6409C103.92 36.5811 103.98 36.5811 104.07 36.5811H105.384C105.503 36.5811 105.563 36.611 105.593 36.6707C105.622 36.7304 105.622 36.7902 105.622 36.8499V43.8376C105.622 43.8974 105.622 43.9571 105.593 44.0168C105.563 44.0765 105.503 44.1064 105.384 44.1064H104.07C103.89 44.1064 103.831 44.0168 103.831 43.8675V36.8798C103.831 36.7304 103.861 36.6707 103.89 36.6409Z" fill="white"/>
<path d="M68.5934 54.4687L68.4739 56.0215C68.4441 56.1708 68.4142 56.2903 68.3844 56.3201C68.3545 56.35 68.2649 56.3798 68.1455 56.3798H67.0704C66.951 56.3798 66.8912 56.35 66.8315 56.3201C66.8017 56.2903 66.7718 56.1708 66.7419 55.9916L66.6523 53.2742C66.6523 53.1846 66.6822 53.095 66.7121 53.0353C66.7419 52.9755 66.8315 52.9457 66.951 52.9158L67.369 52.8561C67.5184 52.7068 67.6378 52.5575 67.7274 52.4082C67.8468 52.2589 67.9066 52.0498 67.9961 51.8408C68.0559 51.6318 68.1156 51.3929 68.1753 51.1241C68.2052 50.8553 68.2649 50.5567 68.2948 50.2282L68.5635 46.9732C68.5934 46.8239 68.6233 46.7045 68.7128 46.6448C68.8024 46.585 68.892 46.5552 69.0413 46.5552H73.7596C73.9387 46.5552 74.0283 46.6448 74.0283 46.8239V52.9158L74.5061 52.9755C74.6853 53.0054 74.7749 53.1249 74.7749 53.3339L74.6554 56.0215C74.6256 56.2007 74.6256 56.3201 74.5957 56.3798C74.5658 56.4396 74.4762 56.4396 74.3568 56.4396H73.3116C73.1922 56.4396 73.1026 56.4097 73.0727 56.3798C73.013 56.35 73.013 56.2305 72.9831 56.0812L72.9234 54.5284H68.5934V54.4687ZM72.0574 48.108H70.2955L70.0865 50.6762C70.0566 51.154 69.9969 51.5422 69.9073 51.9304C69.8177 52.2887 69.6983 52.6172 69.549 52.886H72.0574V48.108Z" fill="white"/>
<path d="M78.5376 54.3791C78.5077 54.4388 78.448 54.4687 78.3285 54.4687H76.925C76.7458 54.4687 76.6562 54.3791 76.6562 54.1999V46.7642C76.6562 46.7045 76.6861 46.6149 76.716 46.5851C76.7458 46.5253 76.8354 46.4955 76.925 46.4955H79.7022C80.0904 46.4955 80.4189 46.5552 80.7474 46.6448C81.0758 46.7642 81.3745 46.9136 81.6134 47.0927C81.8523 47.3018 82.0613 47.5407 82.1807 47.8691C82.3301 48.1678 82.3898 48.556 82.3898 48.974C82.3898 49.2428 82.3599 49.5414 82.2703 49.84C82.1807 50.1387 82.0613 50.4074 81.8523 50.6762C81.6432 50.9151 81.3745 51.1241 81.0161 51.3033C80.6578 51.4526 80.2098 51.5422 79.6723 51.5422H78.5376V54.1999C78.5973 54.2597 78.5674 54.3194 78.5376 54.3791ZM80.2098 48.3171C80.0307 48.1678 79.7619 48.0782 79.4633 48.0782H78.5973V49.9894H79.4932C79.7918 49.9894 80.0605 49.8998 80.2397 49.7505C80.4189 49.6012 80.5085 49.3324 80.5085 49.0338C80.4786 48.7053 80.389 48.4664 80.2098 48.3171Z" fill="white"/>
<path d="M83.4648 46.7941C83.435 46.7045 83.4051 46.6448 83.435 46.5851C83.4648 46.5253 83.5246 46.4955 83.6142 46.4955H85.0475C85.1968 46.4955 85.2864 46.5253 85.3462 46.5552C85.4059 46.5851 85.4656 46.6747 85.5253 46.7941L86.242 48.6754L86.9886 50.6762H87.0483L87.8247 48.6157L88.4817 46.8837C88.5414 46.7642 88.6011 46.6747 88.6609 46.6149C88.7206 46.5552 88.8102 46.5253 88.9595 46.5253H90.3033C90.3929 46.5253 90.4526 46.5552 90.4825 46.6149C90.5123 46.6747 90.5123 46.7344 90.4526 46.7941L88.1234 52.5276C87.974 52.8561 87.8247 53.1548 87.7053 53.4534C87.556 53.7221 87.4067 53.961 87.2275 54.1701C87.0483 54.3791 86.8393 54.5284 86.6004 54.618C86.3615 54.7374 86.0629 54.7673 85.7344 54.7673C85.6746 54.7673 85.5851 54.7673 85.4955 54.7673C85.4059 54.7673 85.3163 54.7673 85.1968 54.7374C85.1073 54.7374 84.9878 54.7076 84.8982 54.7076C84.8086 54.7076 84.7191 54.6777 84.6593 54.6777C84.51 54.6479 84.4204 54.5881 84.3607 54.5284C84.3308 54.4687 84.301 54.3492 84.3308 54.1999L84.4204 53.5131C84.4503 53.3936 84.4802 53.3339 84.51 53.3041C84.5697 53.2742 84.6593 53.2742 84.8385 53.2742C85.0475 53.3041 85.2267 53.3041 85.3462 53.3041C85.4656 53.3041 85.5851 53.2742 85.6746 53.2443C85.7642 53.2145 85.824 53.1846 85.8538 53.1249C85.8837 53.0652 85.9434 53.0054 85.9733 52.9159L86.0927 52.677L83.4648 46.7941Z" fill="white"/>
<path d="M97.0819 50.8554C97.2909 51.154 97.3805 51.5124 97.3805 51.9603C97.3805 52.4083 97.2909 52.7666 97.1416 53.0951C96.9923 53.4236 96.7534 53.6923 96.4846 53.9014C96.186 54.1104 95.8575 54.2896 95.4394 54.3792C95.0214 54.4986 94.6033 54.5285 94.0956 54.5285C93.9762 54.5285 93.8269 54.5285 93.6178 54.4986C93.4088 54.4986 93.1998 54.4687 92.9907 54.4389C92.7817 54.409 92.5428 54.3792 92.3338 54.3493C92.1247 54.3194 91.9157 54.2597 91.7664 54.2C91.6171 54.1403 91.4976 54.0805 91.4678 54.0208C91.408 53.9611 91.3782 53.8715 91.3782 53.8118C91.3782 53.7521 91.3782 53.7222 91.3782 53.6923L91.4976 53.0354C91.5275 52.9458 91.5275 52.8562 91.5872 52.8263C91.6171 52.7965 91.6768 52.7666 91.7664 52.7666C91.8261 52.7666 91.856 52.7666 91.8858 52.7666C92.2442 52.8263 92.6025 52.8562 92.9609 52.8861C93.3192 52.9159 93.6477 52.9458 93.9463 52.9458C94.4241 52.9458 94.8123 52.8562 95.0512 52.7069C95.2901 52.5576 95.4096 52.2888 95.4096 51.9305C95.4096 51.6617 95.32 51.4228 95.1707 51.2436C95.0214 51.0645 94.7227 50.9749 94.3644 50.9749H93.4685C93.3192 50.9749 93.2296 50.945 93.1998 50.9151C93.1699 50.8554 93.14 50.7957 93.14 50.6464V49.87C93.14 49.7505 93.1699 49.6609 93.1998 49.6012C93.2296 49.5415 93.3192 49.5116 93.4685 49.5116H94.3345C94.6033 49.5116 94.8123 49.4519 95.0214 49.3325C95.2304 49.213 95.32 49.0338 95.32 48.7949C95.32 48.6456 95.2901 48.4963 95.2304 48.4067C95.1707 48.2873 95.0811 48.2276 94.9616 48.138C94.8422 48.0782 94.7227 48.0185 94.5734 48.0185C94.4241 47.9887 94.2449 47.9887 94.0956 47.9887C93.8567 47.9887 93.588 47.9887 93.2894 48.0185C92.9907 48.0484 92.6623 48.0782 92.3039 48.1678C92.274 48.1678 92.2143 48.1678 92.1845 48.1977C92.1546 48.1977 92.1247 48.1977 92.0949 48.1977C92.0351 48.1977 91.9754 48.1678 91.9456 48.138C91.9157 48.1081 91.8858 48.0484 91.856 47.9588C91.8261 47.8393 91.7962 47.7199 91.7962 47.6004C91.7664 47.481 91.7365 47.3615 91.7067 47.2421C91.7067 47.2122 91.7067 47.1525 91.7067 47.1227C91.7067 47.0629 91.7365 46.9733 91.7962 46.9435C91.856 46.8838 91.9456 46.824 92.0949 46.7643C92.274 46.7046 92.4532 46.6449 92.6622 46.5851C92.8713 46.5254 93.0803 46.4955 93.2894 46.4657C93.4984 46.4358 93.7074 46.406 93.8866 46.406C94.0658 46.406 94.2449 46.3761 94.3943 46.3761C95.4096 46.3761 96.1263 46.5851 96.6041 46.9733C97.0819 47.3616 97.2909 47.9289 97.2909 48.6158C97.2909 48.9442 97.2013 49.2727 97.0221 49.5714C96.843 49.87 96.6041 50.1089 96.3054 50.2582C96.6339 50.3478 96.9027 50.5568 97.0819 50.8554Z" fill="white"/>
<path d="M99.5605 46.4955H100.934C101.113 46.4955 101.203 46.5851 101.203 46.7642V49.5116H102.457C103.025 49.5116 103.472 49.6012 103.831 49.7505C104.189 49.8998 104.488 50.1088 104.697 50.3477C104.906 50.5866 105.055 50.8554 105.145 51.154C105.234 51.4526 105.264 51.7512 105.264 52.02C105.264 52.4381 105.175 52.7964 105.025 53.095C104.876 53.3936 104.667 53.6624 104.428 53.8714C104.159 54.0805 103.861 54.2298 103.532 54.3194C103.204 54.409 102.845 54.4687 102.457 54.4687H99.5605C99.4411 54.4687 99.3813 54.4388 99.3515 54.409C99.3216 54.3492 99.2917 54.2895 99.2917 54.2298V46.7941C99.2917 46.5851 99.3813 46.4955 99.5605 46.4955ZM103.084 51.2734C102.905 51.1241 102.666 51.0345 102.368 51.0345H101.203V52.9159H102.338C102.636 52.9159 102.875 52.8263 103.084 52.677C103.263 52.5276 103.353 52.2887 103.353 52.02C103.323 51.6616 103.263 51.4227 103.084 51.2734Z" fill="white"/>
<path d="M107.026 47.8691C107.175 47.5705 107.384 47.3018 107.623 47.0927C107.862 46.8837 108.161 46.7344 108.459 46.6448C108.788 46.5552 109.087 46.4955 109.445 46.4955H112.401C112.491 46.4955 112.58 46.5253 112.61 46.5851C112.64 46.6448 112.67 46.7045 112.67 46.7642V54.1999C112.67 54.2895 112.64 54.3492 112.61 54.3791C112.58 54.4388 112.491 54.4388 112.401 54.4388H110.968C110.848 54.4388 110.789 54.409 110.759 54.3492C110.729 54.2895 110.699 54.2298 110.699 54.1701V51.363H109.982C109.803 51.363 109.624 51.4227 109.475 51.5422C109.325 51.6616 109.206 51.8707 109.087 52.1693L108.459 54.1103C108.4 54.2597 108.37 54.3492 108.31 54.3791C108.25 54.4388 108.131 54.4687 107.952 54.4687H106.698C106.488 54.4687 106.429 54.3791 106.489 54.1701L107.145 52.1096C107.235 51.7811 107.355 51.5422 107.474 51.363C107.593 51.1838 107.743 51.0345 107.952 50.945C107.743 50.8554 107.564 50.7658 107.414 50.6165C107.265 50.4672 107.145 50.3178 107.056 50.1387C106.966 49.9595 106.907 49.7803 106.877 49.5713C106.847 49.3623 106.817 49.1831 106.817 49.0039C106.817 48.5261 106.877 48.1678 107.026 47.8691ZM108.907 49.422C108.967 49.5414 109.057 49.6012 109.146 49.6609C109.236 49.7206 109.325 49.7505 109.445 49.7803C109.564 49.8102 109.654 49.8102 109.773 49.8102H110.729V48.108H109.773C109.534 48.108 109.325 48.1678 109.116 48.3171C108.907 48.4664 108.818 48.6754 108.818 48.974C108.818 49.1831 108.848 49.3324 108.907 49.422Z" fill="white"/>
<path d="M107.713 36.6409C107.743 36.5812 107.803 36.5812 107.922 36.5812H112.401C112.551 36.5812 112.64 36.6708 112.64 36.8201V37.8354C112.64 37.8951 112.61 37.9548 112.58 38.0146C112.551 38.0444 112.491 38.0743 112.371 38.0743H109.445V39.4479H111.595C111.774 39.4479 111.864 39.5375 111.864 39.6868V40.7022C111.864 40.7619 111.834 40.8216 111.804 40.8813C111.774 40.9411 111.714 40.9411 111.595 40.9411H109.445V42.5536H112.401C112.58 42.5536 112.64 42.6432 112.64 42.7925V43.8078C112.64 43.8675 112.61 43.9273 112.58 43.9571C112.551 43.987 112.491 44.0169 112.371 44.0169H107.862C107.773 44.0169 107.713 43.987 107.653 43.9571C107.623 43.8974 107.594 43.8675 107.594 43.778V36.7902C107.683 36.7305 107.683 36.6708 107.713 36.6409Z" fill="white"/>
<path d="M72.3858 32.4603C72.3559 32.7589 72.2365 33.0576 72.0872 33.3263C71.9378 33.5951 71.7288 33.8041 71.4302 33.9833C71.1316 34.1625 70.7434 34.252 70.2656 34.252C69.9371 34.252 69.6683 34.2222 69.4294 34.1326C69.1905 34.043 69.0113 33.9534 68.8322 33.8041C68.6829 33.6847 68.5335 33.5354 68.444 33.3562C68.3544 33.177 68.2648 32.9978 68.2349 32.7888C68.1752 32.5798 68.1453 32.4006 68.1453 32.1916C68.1155 31.9825 68.1155 31.8034 68.1155 31.5943C68.1155 31.445 68.1155 31.2957 68.1453 31.0867C68.1752 30.9075 68.2051 30.7283 68.2648 30.5193C68.3245 30.3401 68.3842 30.1609 68.5037 29.9818C68.5933 29.8026 68.7127 29.6533 68.8919 29.504C69.0412 29.3547 69.2502 29.2651 69.4891 29.1755C69.728 29.0859 69.9968 29.056 70.3253 29.056C70.8031 29.056 71.1913 29.1158 71.4601 29.2651C71.7587 29.4144 71.9677 29.5935 72.117 29.8324C72.2663 30.0713 72.3858 30.3401 72.4156 30.6387C72.4754 30.9373 72.5052 31.236 72.5052 31.5346C72.4455 31.8631 72.4455 32.1318 72.3858 32.4603ZM71.0121 30.4596C70.8927 30.2207 70.6239 30.0713 70.2656 30.0713C69.9371 30.0713 69.6982 30.1908 69.5787 30.4596C69.4593 30.7283 69.3996 31.1165 69.3996 31.6242C69.3996 32.1318 69.4593 32.52 69.5787 32.7589C69.6982 33.0277 69.9371 33.1471 70.2954 33.1471C70.6538 33.1471 70.8927 33.0277 71.042 32.7589C71.1913 32.52 71.251 32.1318 71.251 31.5943C71.2212 31.1165 71.1614 30.6984 71.0121 30.4596Z" fill="white"/>
<path d="M77.0442 31.863C77.1637 32.0422 77.2234 32.2811 77.2234 32.5498C77.2234 32.8186 77.1637 33.0575 77.0741 33.2665C76.9845 33.4755 76.8352 33.6547 76.656 33.7742C76.4769 33.9235 76.2678 34.0131 75.9991 34.0728C75.7303 34.1325 75.4615 34.1624 75.1629 34.1624C75.1032 34.1624 74.9837 34.1624 74.8643 34.1624C74.7448 34.1624 74.5955 34.1325 74.4761 34.1325C74.3268 34.1026 74.2073 34.1026 74.058 34.0728C73.9087 34.0429 73.7893 34.0131 73.6997 33.9832C73.6101 33.9533 73.5504 33.8936 73.4906 33.8638C73.4608 33.8339 73.4309 33.7742 73.4309 33.7144C73.4309 33.6846 73.4309 33.6547 73.4309 33.6249L73.5205 33.2068C73.5205 33.1471 73.5504 33.0873 73.5802 33.0575C73.6101 33.0276 73.6399 33.0276 73.6997 33.0276C73.7295 33.0276 73.7594 33.0276 73.7893 33.0276C73.9983 33.0575 74.2372 33.0873 74.4761 33.1172C74.715 33.1471 74.924 33.1471 75.1032 33.1471C75.4018 33.1471 75.6407 33.0873 75.79 32.9977C75.9393 32.9082 76.0289 32.729 76.0289 32.4901C76.0289 32.3109 75.9692 32.1616 75.8796 32.072C75.79 31.9526 75.6108 31.9227 75.372 31.9227H74.8046C74.715 31.9227 74.6553 31.9227 74.6254 31.8928C74.5955 31.863 74.5955 31.8033 74.5955 31.7137V31.2359C74.5955 31.1463 74.6254 31.0866 74.6254 31.0567C74.6553 31.0268 74.715 30.997 74.8046 30.997H75.372C75.5213 30.997 75.6706 30.9671 75.8199 30.8775C75.9393 30.7879 76.0289 30.6984 76.0289 30.5491C76.0289 30.4595 75.9991 30.3699 75.9692 30.3102C75.9393 30.2504 75.8796 30.1907 75.79 30.1608C75.7303 30.131 75.6407 30.1011 75.5511 30.0713C75.4615 30.0713 75.3421 30.0414 75.2525 30.0414C75.1032 30.0414 74.924 30.0414 74.7448 30.0713C74.5358 30.1011 74.3566 30.131 74.1177 30.1608C74.0879 30.1608 74.058 30.1608 74.058 30.1608C74.0282 30.1608 74.0282 30.1608 73.9983 30.1608C73.9386 30.1608 73.9087 30.1608 73.9087 30.131C73.8788 30.1011 73.8788 30.0713 73.849 30.0115C73.849 29.9219 73.8191 29.8622 73.7893 29.7726C73.7594 29.683 73.7594 29.6233 73.7295 29.5337C73.7295 29.5039 73.7295 29.474 73.7295 29.4441C73.7295 29.3844 73.7594 29.3546 73.7893 29.3247C73.8191 29.2948 73.8788 29.265 73.9684 29.2053C74.058 29.1754 74.2073 29.1157 74.3268 29.0858C74.4462 29.0559 74.5955 29.0261 74.715 29.0261C74.8344 28.9962 74.9837 28.9962 75.1032 28.9962C75.2226 28.9962 75.3421 28.9962 75.4317 28.9962C76.0588 28.9962 76.5366 29.1157 76.8053 29.3844C77.104 29.6233 77.2533 29.9817 77.2533 30.4296C77.2533 30.6386 77.1935 30.8477 77.0741 31.0268C76.9546 31.206 76.8053 31.3553 76.6262 31.4449C76.7456 31.5345 76.9248 31.6838 77.0442 31.863Z" fill="white"/>
<path d="M82.8673 32.1317C82.7478 32.072 82.6284 32.0421 82.4791 32.0421H82.1805V33.9533C82.1805 33.9831 82.1805 34.013 82.1506 34.0727C82.1207 34.1026 82.0909 34.1324 82.0312 34.1324H81.1353C81.0756 34.1324 81.0158 34.1026 81.0158 34.0727C80.986 34.0429 80.986 34.013 80.986 33.9533V32.0421H80.6874C80.538 32.0421 80.4186 32.072 80.2991 32.1317C80.1797 32.1914 80.0901 32.3407 80.0304 32.5498L79.6422 33.8935C79.6123 33.9831 79.5824 34.0429 79.5526 34.0727C79.5227 34.1026 79.4331 34.1324 79.3137 34.1324H78.4477C78.3282 34.1324 78.2685 34.0727 78.2984 33.9533L78.7463 32.49C78.806 32.2511 78.8956 32.0421 78.9852 31.8928C79.0748 31.7435 79.1942 31.624 79.3734 31.5344C79.2241 31.4747 79.1047 31.3553 78.9852 31.206C78.8956 31.0268 78.806 30.8476 78.7165 30.6087L78.3282 29.3246C78.2984 29.2052 78.3282 29.1455 78.4477 29.1455H79.254C79.3734 29.1455 79.4331 29.1753 79.4929 29.2052C79.5227 29.2351 79.5526 29.2948 79.5825 29.3844L79.9408 30.549C79.9707 30.6684 80.0304 30.758 80.0602 30.8177C80.12 30.8775 80.1797 30.9372 80.2394 30.9671C80.2991 30.9969 80.3589 31.0268 80.4186 31.0268C80.4783 31.0268 80.538 31.0566 80.5978 31.0566H80.9262V29.2948C80.9262 29.235 80.9263 29.2052 80.9561 29.1753C80.986 29.1455 81.0158 29.1156 81.0756 29.1156H81.9714C82.0311 29.1156 82.0909 29.1455 82.0909 29.1753C82.1207 29.2052 82.1207 29.2649 82.1207 29.2948V31.0566H82.4492C82.5089 31.0566 82.5687 31.0566 82.6284 31.0268C82.6881 31.0268 82.7478 30.9969 82.8076 30.9671C82.8673 30.9372 82.927 30.8775 82.9867 30.8177C83.0465 30.758 83.0763 30.6684 83.1062 30.549L83.4645 29.3844C83.4944 29.2948 83.5243 29.2351 83.584 29.2052C83.6138 29.1753 83.7034 29.1455 83.8229 29.1455H84.6292C84.7486 29.1455 84.8083 29.2052 84.7785 29.3246L84.3903 30.6087C84.3007 30.8476 84.2111 31.0566 84.1215 31.206C84.0319 31.3553 83.8826 31.4747 83.7632 31.5344C83.9423 31.5942 84.0618 31.7136 84.1514 31.8928C84.2409 32.0421 84.3305 32.2511 84.3903 32.49L84.8382 33.9533C84.8681 34.0727 84.8382 34.1324 84.6889 34.1324H83.8229C83.7034 34.1324 83.6437 34.1026 83.584 34.0727C83.5541 34.0429 83.5243 33.9831 83.4645 33.8935L83.0763 32.5498C83.0763 32.3407 82.9867 32.2213 82.8673 32.1317Z" fill="white"/>
<path d="M7.67449 21.5307C13.1691 13.2589 22.7847 8.42119 31.8628 8.06285C37.6561 7.82395 46.5849 6.03222 48.5558 2.06055C49.2725 2.35917 48.4065 8.51078 46.6148 9.58582C50.0489 8.98857 50.7357 7.4656 50.9746 7.85381C50.4968 9.82471 48.9141 11.9748 46.9432 12.4227C48.6155 14.1249 48.078 19.7987 48.2572 21.2918C50.4371 21.1723 55.2748 21.4112 58.052 21.4112C59.0076 21.4112 60.7993 21.1425 61.9042 22.6057C63.3376 24.487 64.5022 28.5782 62.6507 34.3416C62.6507 34.3416 61.2472 39.9855 58.9478 41.2696C57.3353 42.1655 48.3169 65.7864 33.4455 69.2803C24.8751 71.2811 13.2886 64.5322 8.39118 57.1563C-3.67314 39.1792 5.46468 24.8454 7.67449 21.5307Z" fill="#7F5338"/>
<path d="M47.3315 29.2052C47.3315 28.817 47.66 28.4885 48.0482 28.4885C48.4364 28.4885 48.7649 28.817 48.7649 29.2052C48.7649 29.5934 48.4364 29.9219 48.0482 29.9219C47.66 29.9219 47.3315 29.6233 47.3315 29.2052Z" fill="#351C12"/>
<path d="M51.6914 26.219C51.6914 25.8308 52.0199 25.5023 52.4081 25.5023C52.7963 25.5023 53.1248 25.8308 53.1248 26.219C53.1248 26.6072 52.7963 26.9357 52.4081 26.9357C52.0199 26.9357 51.6914 26.6072 51.6914 26.219Z" fill="#351C12"/>
<path d="M51.8108 30.4296C51.8108 30.0414 52.1393 29.7129 52.5275 29.7129C52.9157 29.7129 53.2442 30.0414 53.2442 30.4296C53.2442 30.8178 52.9157 31.1463 52.5275 31.1463C52.1393 31.1463 51.8108 30.8178 51.8108 30.4296Z" fill="#351C12"/>
<path opacity="0.4" d="M48.4961 2.03064C48.1975 3.13554 48.3767 8.89894 43.8376 9.10798C43.8376 9.10798 44.196 9.94412 45.0023 10.0337C47.5406 10.3025 49.2427 5.43493 48.4961 2.03064Z" fill="#A9AFB0"/>
<path opacity="0.4" d="M50.9447 7.76416C49.0634 10.3323 47.63 10.6309 45.5994 11.0191C46.1667 12.1838 46.764 12.6317 46.764 12.6317C46.764 12.6317 50.0488 11.8851 50.9447 7.76416Z" fill="#A9AFB0"/>
<path opacity="0.4" d="M61.8146 23.0835C61.8146 23.0835 64.8008 33.1769 55.8123 42.3745L59.1568 41.8071C59.1568 41.8071 63.4868 36.0138 63.5466 28.7274C63.3973 24.6065 62.143 23.7703 61.8146 23.0835Z" fill="#A9AFB0"/>
<path d="M58.4401 27.0551C56.8574 26.9655 55.6629 23.9495 55.8719 22.8147C56.2303 20.8139 59.2165 21.2021 60.8888 21.7397C60.8888 21.7397 62.1728 22.1876 61.9937 23.2626C61.9041 23.9793 60.9485 27.1746 58.4401 27.0551Z" fill="#351C12"/>
<path opacity="0.4" d="M25.4722 8.98853C25.4722 8.98853 8.15218 12.9303 3.40409 30.3997C-1.70234 49.1233 12.094 67.5781 27.7119 69.2803C27.7119 69.2803 31.6836 69.0414 31.0266 68.2351C20.6943 68.6233 3.7923 49.4816 9.7946 28.4885C14.2142 13.0498 25.4722 8.98853 25.4722 8.98853Z" fill="#A9AFB0"/>
<path opacity="0.2" d="M59.3959 22.5758C59.3959 22.8445 58.8584 23.0834 58.2313 23.0834C57.5743 23.0834 57.0667 22.8445 57.0667 22.5758C57.0667 22.307 57.6042 22.0681 58.2313 22.0681C58.8882 22.0681 59.3959 22.307 59.3959 22.5758Z" fill="white"/>
<path opacity="0.4" d="M58.2313 28.6976C58.2313 28.6976 57.2458 32.2214 58.5598 32.8485C48.1976 44.1065 38.4924 33.5054 38.0444 30.6984C50.9449 43.36 58.2313 28.6976 58.2313 28.6976Z" fill="#A9AFB0"/>
<path d="M54.8268 33.2964L54.1698 35.5957C53.8114 36.85 54.3788 38.1042 55.424 38.4028C56.4692 38.7014 57.604 37.925 57.9623 36.6708L58.6193 34.3714C58.6193 34.3714 58.5894 30.5789 58.4998 28.1003C57.4546 31.3255 54.8268 33.2964 54.8268 33.2964Z" fill="#DA3A36"/>
<path opacity="0.5" d="M33.8934 25.8906C33.4753 25.8906 33.0274 25.8308 32.5794 25.6815C31.3849 25.2933 30.3696 23.8599 29.205 23.2328C27.8313 22.4863 27.0848 21.6203 27.8015 20.0077C28.3091 18.8729 28.8467 17.8278 29.1154 16.5735C29.3842 15.3193 29.2647 13.8561 30.6981 13.3186C32.2509 12.7213 32.878 13.8262 33.7142 14.9013C34.1323 15.4686 34.4309 16.0958 35.1177 16.4242C35.924 16.8124 36.6108 16.3944 37.3275 17.2305C39.8658 20.1869 38.0741 25.8906 33.8934 25.8906Z" fill="#B99161"/>
<path d="M30.8477 21.2918C30.8477 21.2918 30.8178 21.2918 30.8477 21.2918C30.5192 21.2918 30.2803 21.023 30.2803 20.7244C30.34 19.1118 31.6241 17.7979 33.2366 17.7083C34.0728 17.6784 34.8492 17.9472 35.4763 18.5146C36.1034 19.082 36.4617 19.8285 36.4916 20.6647C36.4916 20.9633 36.2527 21.232 35.9541 21.2619C35.6555 21.2619 35.3867 21.023 35.3568 20.7244C35.327 20.1869 35.1179 19.7091 34.6999 19.3507C34.3117 18.9924 33.804 18.8132 33.2665 18.8431C32.2512 18.9028 31.415 19.7389 31.3852 20.7542C31.3852 21.0529 31.1463 21.2918 30.8477 21.2918Z" fill="#351C12"/>
<path d="M40.7319 21.2918C40.4034 21.2918 40.1646 21.023 40.1646 20.7244C40.2243 19.1118 41.5083 17.7979 43.1209 17.7083C43.957 17.6784 44.7335 17.9472 45.3606 18.5146C45.9877 19.082 46.346 19.8285 46.3759 20.6647C46.3759 20.9633 46.137 21.232 45.8384 21.2619C45.5397 21.2619 45.271 21.023 45.2411 20.7244C45.2113 20.1869 45.0022 19.7091 44.5842 19.3507C44.1959 18.9924 43.6883 18.8132 43.1508 18.8431C42.1355 18.9028 41.2993 19.7389 41.2694 20.7542C41.2993 21.0529 41.0306 21.2918 40.7319 21.2918Z" fill="#351C12"/>
<path d="M26.3084 8.89905C25.7709 9.04836 25.2334 9.16781 24.7556 9.31712C23.8 11.0193 22.7548 13.2291 22.0382 15.8569C20.8138 20.3661 20.9034 24.8753 22.3069 29.265C22.4264 29.5935 22.3965 29.8922 22.2173 30.1609C21.7993 30.8776 20.6346 31.2957 19.9777 31.4151C18.0068 31.7436 15.0205 31.7436 12.4225 31.7735C11.2878 31.7735 10.2127 31.7735 9.25714 31.8033C7.0772 31.8631 4.59864 30.9075 3.97154 29.3248C3.85209 29.7727 3.70278 30.2804 3.55347 30.788C4.65837 32.0721 6.689 32.9381 8.98838 32.9381C9.07797 32.9381 9.16756 32.9381 9.287 32.9381C10.2127 32.9082 11.2878 32.9082 12.4225 32.9082C15.0803 32.9082 18.1262 32.8784 20.1867 32.5499C20.993 32.4006 22.5159 31.8929 23.2028 30.788C23.5313 30.2206 23.6208 29.5935 23.4118 28.9366C20.3957 19.5897 24.3674 12.0943 26.3084 8.89905Z" fill="#351C12"/>
<path d="M47.6599 36.5215C40.8811 36.5215 37.7158 30.5192 37.6859 30.4297C37.5366 30.1609 37.656 29.8025 37.9248 29.6831C38.1936 29.5338 38.5519 29.6532 38.6713 29.922C38.8207 30.2206 42.4937 37.1188 50.6759 34.9687C57.0963 33.2666 57.9623 26.5476 57.9922 26.4878C58.022 26.1892 58.3207 25.9503 58.6193 25.9802C58.9179 26.01 59.1568 26.3087 59.1269 26.6073C59.1269 26.6969 58.1713 34.1624 50.9746 36.0736C49.7502 36.4021 48.6752 36.5215 47.6599 36.5215Z" fill="#351C12"/>
<path d="M61.6953 37.0292C61.8745 36.5514 62.0238 36.0438 62.1731 35.6257C61.3668 36.0438 60.7397 36.1035 60.2619 35.8049C58.6792 34.7597 58.7688 29.5338 59.1869 26.5177L58.0521 26.3684C57.9327 27.2344 56.9173 34.9687 59.6348 36.7604C60.023 37.0292 60.4411 37.1487 60.9189 37.1487C61.1876 37.1487 61.4564 37.1188 61.6953 37.0292Z" fill="#351C12"/>
<path d="M32.5198 70.2359C22.6354 70.3255 12.1837 63.5766 8.06271 57.3653C-2.68768 41.2994 3.04586 27.8913 7.40574 21.3216C12.7212 13.3186 22.0979 8.12255 31.8629 7.70448C37.4172 7.46558 46.3759 5.73357 48.2572 1.88135C48.3468 1.73204 48.526 1.64245 48.6753 1.70218C49.0336 1.85149 49.0933 2.32928 49.1232 2.65777C49.2128 3.5835 49.0037 5.13633 48.6155 6.50999C48.4065 7.31627 48.078 8.27186 47.6002 8.98855C49.0635 8.60034 49.81 8.03296 50.258 7.70448C50.5267 7.5253 50.676 7.40585 50.8552 7.40585C51.0045 7.40585 51.1538 7.49544 51.2434 7.61489C51.3031 7.70448 51.3031 7.79406 51.2733 7.88365C50.7955 9.7351 49.392 11.8553 47.4808 12.572C48.526 14.1846 48.526 17.4097 48.526 19.6195C48.526 20.1271 48.526 20.5751 48.526 20.9334C48.8544 20.9334 49.2725 20.9036 49.7503 20.9036C51.0045 20.9036 52.5574 20.9334 54.0505 20.9931C55.5137 21.023 56.9172 21.0827 57.9923 21.0827C58.1117 21.0827 58.2312 21.0827 58.3805 21.0827C59.4555 21.0529 61.0382 20.9931 62.1132 22.4265C63.6959 24.5169 64.7411 28.7872 62.9195 34.461C62.8299 34.8193 61.4264 40.2542 59.0374 41.598C58.7388 41.7772 57.8728 43.3898 56.9471 45.0919C53.0949 52.1693 45.0918 66.9212 33.4456 69.6386C32.4302 69.8775 33.6546 70.2359 32.5198 70.2359ZM48.4662 2.83694C45.689 6.77875 36.5512 8.18227 31.8927 8.39131C22.3368 8.77951 13.1691 13.8859 7.97312 21.7098C3.70283 28.1302 -1.8814 41.2397 8.63009 56.9771C12.6615 63.0391 22.1875 69.1907 30.5489 69.1907C31.6538 69.1907 32.3407 69.1907 33.3261 68.9518C44.6737 66.2941 52.5872 51.7512 56.3797 44.7634C57.7534 42.255 58.3207 41.2397 58.7388 41.0008C60.9188 39.8063 62.2626 34.3415 62.2924 34.2818C62.2924 34.2818 62.2924 34.2818 62.2924 34.2519C64.0543 28.7872 63.0688 24.7558 61.6056 22.8147C60.8889 21.8591 59.8437 21.7397 58.918 21.7397C58.7388 21.7397 58.5596 21.7397 58.4103 21.7397C58.261 21.7397 58.1416 21.7397 58.0221 21.7397C56.9172 21.7397 55.5436 21.7098 54.0505 21.6501C52.5574 21.6203 51.0045 21.5605 49.7503 21.5605C49.1232 21.5605 48.6155 21.5605 48.2273 21.5904C48.0482 21.5904 47.8988 21.4709 47.869 21.2918C47.8391 20.9036 47.8391 20.3362 47.8391 19.5896C47.8391 17.4395 47.8391 13.7964 46.6745 12.6019C46.5849 12.5123 46.4057 12.2435 46.8238 12.0942C47.0627 12.0046 49.3024 11.497 50.3774 8.42117C49.7503 8.83924 48.6454 9.52607 46.6446 9.85455C46.4953 9.88441 46.3162 9.79483 46.2564 9.64552C46.1967 9.49621 46.2564 9.31703 46.4057 9.22745C47.0926 8.80938 47.7794 7.28641 48.1676 5.3155C48.4364 4.2106 48.4961 3.3446 48.4662 2.83694Z" fill="#351C12"/>
<path opacity="0.3" d="M26.5175 42.9419C26.5175 42.9419 25.5022 69.1012 47.5703 66.5629C47.5703 66.5629 37.2081 71.0422 28.787 59.8737C20.336 48.7053 24.1285 43.9572 24.1285 43.9572L26.5175 42.9419Z" fill="#A9AFB0"/>
<path d="M43.0911 67.608C44.3453 67.4289 46.137 66.8913 47.0628 66.3538C49.8698 68.0261 53.7818 68.4143 55.5436 66.9809C53.9012 65.8163 54.0804 63.726 54.0804 63.726C54.0804 63.726 57.2159 64.8906 59.3958 63.3975C58.4403 63.0989 57.4249 59.8439 57.4249 59.8439C57.4249 59.8439 59.9931 59.9335 62.2925 58.9181C61.8147 58.2015 59.366 53.9312 59.366 53.9312C61.5459 49.8699 64.9801 40.8814 64.2634 39.8064C63.5467 38.7313 51.7511 43.36 51.7511 43.36C46.4954 38.5223 39.866 38.7612 39.866 38.7612C39.866 38.7612 34.5804 28.19 32.6991 28.0705C31.3254 28.0108 27.6822 40.9113 27.2343 42.1356L23.0536 43.1808L24.4272 45.8684L22.6654 46.5552L24.3377 48.6157L21.5903 50.7359L24.1585 52.5276C24.1286 52.5575 26.0697 70.1463 43.0911 67.608Z" fill="#EEA73F"/>
<path opacity="0.2" d="M63.7855 39.8362C63.7855 39.8362 61.2473 48.5559 57.6339 54.1999C57.186 57.216 61.7848 59.6049 62.5015 58.6493C59.8139 57.3354 59.6347 53.961 59.6347 53.961C59.6347 53.961 64.2633 45.2711 64.4425 39.8959C64.1738 39.9855 63.7855 39.8362 63.7855 39.8362Z" fill="white"/>
<path opacity="0.2" d="M57.4548 59.5751C57.4548 59.5751 56.4097 59.7841 56.4097 61.1578C56.4097 62.0238 57.9924 63.4572 59.7244 63.1884C59.7244 63.1585 58.3208 63.2183 57.4548 59.5751Z" fill="white"/>
<path opacity="0.5" d="M46.8239 55.693C46.2267 55.0361 45.6891 54.3791 45.6294 53.5131C45.5697 52.5575 45.51 51.4227 44.7037 50.7658C43.5092 49.8102 41.8966 49.4518 40.4334 50.1685C39.4479 50.6463 38.7312 51.5422 37.6263 51.7811C36.611 52.02 35.536 51.3929 34.5207 51.9304C32.9081 52.7964 32.5199 55.0062 32.6991 56.6486C33.2665 61.9641 39.209 64.2336 43.8675 62.9495C45.2412 62.5912 46.9732 61.5759 47.6302 60.2619C48.0781 59.3959 48.4962 58.2612 48.0781 57.3354C47.8093 56.7382 47.3017 56.2305 46.8239 55.693Z" fill="white"/>
<path d="M39.3881 61.755C39.1194 61.755 38.8506 61.7251 38.5819 61.6355C37.5665 61.3071 36.8797 60.3515 36.8499 59.3063C36.8499 59.0674 37.029 58.8584 37.2978 58.8285C37.5367 58.8285 37.7457 59.0077 37.7756 59.2764C37.8054 59.9633 38.2534 60.5605 38.8805 60.7695C39.4777 60.9786 40.1646 60.7994 40.5826 60.3515C40.7618 60.1723 41.0306 60.1723 41.2097 60.3515C41.3889 60.5306 41.3889 60.7994 41.2097 60.9786C40.7618 61.4862 40.075 61.755 39.3881 61.755Z" fill="#351C12"/>
<path opacity="0.2" d="M53.9906 63.5168C53.9906 63.5168 53.1246 63.6662 52.826 64.8009C52.617 65.6371 54.1101 67.2198 55.7824 67.1302C55.7824 67.16 53.8712 65.3086 53.9906 63.5168Z" fill="white"/>
<path d="M43.6884 53.9312C43.6287 54.618 42.1057 56.0813 40.8813 55.6333H40.8515C39.6271 55.1854 39.3882 53.2444 39.8362 52.5277C40.314 51.7214 41.6578 52.3186 42.1057 52.4679C43.0613 52.8562 43.7481 53.0652 43.6884 53.9312Z" fill="#351C12"/>
<path d="M36.4915 50.1685C36.372 50.1685 36.2824 50.1386 36.163 50.0789C35.8942 49.8997 35.8345 49.5414 36.0137 49.3025C36.4915 48.5858 36.3123 47.6004 35.5956 47.1226C35.2373 46.8837 34.8192 46.7941 34.4011 46.8837C33.9831 46.9732 33.6247 47.2121 33.3858 47.5406C33.2066 47.8094 32.8483 47.8691 32.6094 47.6899C32.3406 47.5108 32.2809 47.1524 32.4601 46.9135C32.8782 46.3163 33.4754 45.8982 34.1921 45.7788C34.9088 45.6294 35.6255 45.7788 36.2227 46.1968C37.4471 47.033 37.7755 48.7351 36.9394 49.9595C36.8498 50.0789 36.6706 50.1685 36.4915 50.1685Z" fill="#351C12"/>
<path d="M52.3184 55.1555C52.2885 55.1555 52.2587 55.1555 52.2288 55.1555C51.9302 55.1256 51.6913 54.827 51.751 54.5284C51.8108 54.1103 51.6913 53.6922 51.4524 53.3637C51.1836 53.0352 50.8253 52.8262 50.4072 52.7665C49.5412 52.647 48.7648 53.2741 48.6454 54.1103C48.6155 54.4089 48.3169 54.6478 48.0183 54.5881C47.7196 54.5582 47.4807 54.2596 47.5405 53.961C47.7495 52.4679 49.0933 51.4227 50.5864 51.6317C51.3031 51.7213 51.9302 52.0797 52.3781 52.6769C52.8261 53.2443 53.0052 53.961 52.9157 54.6777C52.8559 54.9464 52.617 55.1555 52.3184 55.1555Z" fill="#351C12"/>
<path d="M34.6699 53.6027C34.5803 53.6027 34.4609 53.5728 34.3713 53.5131L28.1002 49.5115C27.8315 49.3324 27.7717 49.0039 27.9211 48.7351C28.1002 48.4664 28.4287 48.4066 28.6975 48.5559L34.9685 52.5575C35.2373 52.7366 35.297 53.0651 35.1477 53.3339C35.0581 53.5131 34.8789 53.6027 34.6699 53.6027Z" fill="#351C12"/>
<path d="M33.2962 54.9764H33.2663L29.4738 54.7076C29.1752 54.6778 28.9363 54.409 28.9363 54.1104C28.9661 53.8118 29.2349 53.5729 29.5335 53.5729L33.326 53.8416C33.6246 53.8715 33.8635 54.1403 33.8635 54.4389C33.8635 54.7375 33.5948 54.9764 33.2962 54.9764Z" fill="#351C12"/>
<path d="M54.6478 59.0973C54.6179 59.0973 54.5881 59.0973 54.5881 59.0973L47.2121 58.1716C46.9135 58.1417 46.6746 57.8431 46.7343 57.5445C46.7642 57.2459 47.0628 57.007 47.3614 57.0667L54.7374 57.9924C55.036 58.0223 55.2749 58.3209 55.2152 58.6195C55.1554 58.8883 54.9165 59.0973 54.6478 59.0973Z" fill="#351C12"/>
<path d="M50.5266 62.203C50.4072 62.203 50.3176 62.1731 50.1981 62.1134L47.1223 60.023C46.8536 59.8438 46.7939 59.4855 46.973 59.2466C47.1522 58.9778 47.5105 58.9181 47.7494 59.0973L50.8252 61.1876C51.094 61.3668 51.1537 61.7252 50.9745 61.9641C50.885 62.1134 50.7058 62.203 50.5266 62.203Z" fill="#351C12"/>
<path opacity="0.5" d="M33.0871 32.8185C32.46 33.0873 30.6086 38.7611 30.2502 40.4632C30.1905 40.732 30.2801 40.8514 30.6384 40.6125C32.5496 39.3285 35.2372 39.1493 36.8796 39.0896C37.0886 39.0896 37.2977 39.1493 37.0886 38.7909C36.3122 37.5069 33.7142 32.5497 33.0871 32.8185Z" fill="white"/>
<path d="M38.3728 58.1118C38.0742 58.1118 37.8054 58.0819 37.5068 57.9923C35.7449 57.4847 35.3567 55.7527 35.3866 54.9165C35.3866 54.6179 35.6553 54.379 35.9838 54.379C36.2824 54.379 36.5512 54.6478 36.5213 54.9763C36.5213 55.036 36.4915 56.559 37.8353 56.9173C39.1492 57.3055 39.9256 56.3201 40.3437 55.4541C40.4631 55.1853 40.8215 55.036 41.0902 55.1853C41.359 55.3048 41.5083 55.6631 41.359 55.9319C40.6722 57.3354 39.5971 58.1118 38.3728 58.1118Z" fill="#351C12"/>
<path d="M43.0014 59.9035C42.6132 59.9035 42.1952 59.8139 41.7472 59.6049C40.2541 58.8882 39.7166 57.3354 40.3138 55.4839C40.4034 55.1853 40.7319 55.0061 41.0305 55.1255C41.3291 55.2151 41.5083 55.5436 41.3889 55.8422C41.0903 56.768 41.0305 57.9923 42.2549 58.6194C43.5091 59.2167 44.4945 58.1118 44.5244 58.052C44.7334 57.8131 45.0918 57.7833 45.3307 57.9923C45.5696 58.2014 45.5994 58.5597 45.3904 58.7986C45.0022 59.2465 44.1063 59.9035 43.0014 59.9035Z" fill="#351C12"/>
<path opacity="0.3" d="M41.8965 53.1845C41.8368 53.3637 41.4486 53.4234 41.0305 53.2741C40.6125 53.1546 40.284 52.8859 40.3437 52.7067C40.4034 52.5275 40.7916 52.4678 41.2097 52.6171C41.6278 52.7664 41.9563 53.0053 41.8965 53.1845Z" fill="white"/>
<path d="M42.5835 68.2948C42.4939 68.2948 42.4342 68.2948 42.3446 68.2948C33.3561 67.5781 28.7871 63.3377 26.5176 59.9334C24.3377 56.6187 23.8599 53.4832 23.7703 52.7366L21.3515 51.0046C21.2619 50.9449 21.2021 50.8553 21.2021 50.7358C21.2021 50.6164 21.2619 50.5268 21.3515 50.4671L23.83 48.5858L22.3966 46.794C22.3369 46.7044 22.307 46.585 22.3369 46.4655C22.3668 46.3461 22.4564 46.2864 22.5758 46.2565L23.8002 45.928L22.755 43.33C22.7251 43.2404 22.7251 43.1508 22.755 43.0613C22.8147 42.9717 22.8744 42.9119 22.964 42.8821L26.9655 41.8966C27.085 41.5681 27.294 40.9112 27.5329 40.1049C30.4296 30.9073 31.7734 27.8315 32.7588 27.8315H32.7887C33.3859 27.8614 34.4908 28.4885 37.3277 33.4158C38.6118 35.6554 39.7466 37.8951 40.075 38.5521C40.1049 38.5521 40.1348 38.5521 40.1945 38.5521C41.7772 38.5521 47.242 38.8805 51.8109 43.0314C53.2144 42.5237 61.2473 39.6271 63.6661 39.6271C63.9648 39.6271 64.353 39.657 64.562 39.9556C65.428 41.2994 61.5758 50.6462 59.6348 54.2297C59.9632 54.9165 61.307 57.843 62.4418 58.8583C62.5314 58.9181 62.5613 59.0375 62.5613 59.157C62.5613 59.2764 62.5015 59.366 62.3821 59.4257C60.7098 60.3813 58.8583 60.4112 57.9326 60.3515C58.291 61.1279 59.0077 62.5314 59.7542 63.1585C59.8438 63.2182 59.8737 63.3377 59.8737 63.4571C59.8737 63.5766 59.7841 63.6661 59.6945 63.7259C58.7688 64.2037 57.5444 64.4724 56.1409 64.4724C55.3943 64.4724 54.7672 64.4127 54.379 64.353C54.4686 64.9502 54.7971 66.0551 55.8721 67.0406C55.9617 67.1302 55.9916 67.2197 55.9916 67.3392C55.9617 67.4586 55.902 67.5482 55.7825 67.608C54.7374 68.0559 53.5727 68.2948 52.2887 68.2948C50.1087 68.2948 48.0482 67.6677 46.8836 66.9809C45.8086 67.4586 43.8974 68.2948 42.5835 68.2948ZM22.098 50.706L24.2481 52.2588C24.3377 52.3185 24.3675 52.4081 24.3974 52.4977C24.3974 52.5276 24.7259 55.9916 27.085 59.5452C30.2205 64.2634 35.5061 67.0406 42.3744 67.5781C43.6585 67.6677 45.8086 66.8017 46.6746 66.294C46.794 66.2343 46.9135 66.2343 47.0329 66.294C48.0482 66.9211 50.1087 67.4586 52.2887 67.4586C53.2741 67.4586 54.1998 67.3093 55.036 67.0107C53.6623 65.4877 53.6623 63.8453 53.6623 63.7856C53.6623 63.696 53.7221 63.5766 53.7818 63.5168C53.8714 63.4571 53.9609 63.4273 54.0505 63.4571C54.0505 63.4571 54.9763 63.6363 56.1409 63.6363C57.2458 63.6363 58.2014 63.487 58.9778 63.1585C57.9625 62.0237 57.1263 60.023 57.0965 59.9035C57.0368 59.7841 57.0666 59.6646 57.1562 59.575C57.2458 59.4854 57.3652 59.4257 57.4847 59.4556C57.4847 59.4556 59.6646 59.8139 61.6953 58.8882C60.3813 57.425 59.0375 54.379 58.9778 54.2297C58.9479 54.1401 58.9479 54.0207 58.9778 53.9311C61.4265 49.4219 64.4426 41.1799 63.9946 40.2243C63.9648 40.2243 63.8752 40.1945 63.6661 40.1945C61.1876 40.1945 51.9303 43.5988 51.8407 43.6286C51.7213 43.6585 51.572 43.6585 51.4824 43.5689C47.0628 39.4479 41.7175 39.1493 40.1945 39.1493C40.0153 39.1493 39.8959 39.1493 39.8959 39.1493C39.7466 39.1493 39.6271 39.0896 39.5674 38.9701C37.4472 34.67 33.9533 28.5781 32.7588 28.4288C32.6394 28.4885 32.0421 28.9663 30.5789 32.9678C29.683 35.4464 28.7573 38.343 28.16 40.2542C27.8316 41.2695 27.6225 41.9862 27.5031 42.255C27.4732 42.3446 27.3836 42.4341 27.2642 42.464L23.4717 43.3897L24.487 45.9877C24.5168 46.0773 24.5168 46.1669 24.487 46.2565C24.4571 46.3461 24.3675 46.4058 24.278 46.4357L23.2029 46.7343L24.5467 48.4066C24.6064 48.4663 24.6363 48.5559 24.6064 48.6455C24.6064 48.7351 24.5467 48.8246 24.487 48.8844L22.098 50.706Z" fill="#E78824"/>
<path opacity="0.5" d="M60.9487 43.4793C61.2473 44.0765 58.8583 49.5712 57.9923 51.0941C57.843 51.333 57.6937 51.3629 57.6041 50.9448C57.0068 48.7052 55.1554 46.794 53.931 45.6592C53.7817 45.5099 53.5727 45.4203 53.9908 45.3009C55.3943 44.8231 60.6202 42.8223 60.9487 43.4793Z" fill="white"/>
<path opacity="0.3" d="M26.9654 41.8369C26.9654 41.8369 23.3521 68.8622 46.8238 66.3239C46.8238 66.3239 37.0887 71.3109 28.6675 60.1424C20.2166 48.974 23.6208 42.6731 23.6208 42.6731L26.9654 41.8369Z" fill="#A9AFB0"/>
<path d="M46.7641 66.6823C45.3904 66.5031 36.9693 69.4893 30.1308 62.0835C25.9501 57.5743 24.8452 50.5567 24.6362 45.5697C24.4869 42.3446 24.9945 40.0153 23.6507 40.1646C22.8444 40.2542 21.5902 40.4035 21.4708 41.9564C21.4409 42.4939 20.5451 45.719 20.8138 45.6593C19.7089 45.2114 18.9922 38.8507 18.604 36.3423C17.5588 35.9541 16.6033 35.6256 16.006 36.9993C15.8567 37.3576 15.6775 36.193 15.5581 35.8645C15.1101 34.5506 12.9003 35.0284 12.4225 36.1631C12.0343 37.1187 12.7212 37.8951 11.4968 37.2382C9.67523 36.2527 9.16757 38.4326 8.92867 39.7466C8.57033 39.7167 8.03281 39.3285 6.7786 40.1646C6.36053 40.4334 6.42025 42.7029 6.39039 43.2106C6.36053 43.9571 8.9884 53.6325 11.1385 57.425C14.065 62.5911 17.3498 65.428 22.7549 67.9365C22.7847 67.9663 32.3705 73.2519 46.7641 66.6823Z" fill="#F2D3C0"/>
<path opacity="0.3" d="M23.1431 40.0751C23.1431 40.0751 21.7396 51.1838 26.637 59.6647C31.4746 68.0559 39.9256 69.1608 46.7044 66.6524C46.7044 66.6524 32.8483 70.5046 26.8161 56.6187C21.2319 43.8078 26.4279 40.4931 23.1431 40.0751Z" fill="white"/>
<path d="M11.3773 49.7206C11.2578 49.7206 11.1384 49.6609 11.0787 49.5414C8.92858 45.8684 8.6001 39.5077 8.6001 39.239C8.6001 39.0598 8.74941 38.8806 8.92858 38.8806C9.10775 38.8806 9.19734 39.1494 9.25707 39.3285C9.34665 39.657 9.37651 45.0919 11.6759 49.1831C11.7655 49.3324 11.7058 49.5414 11.5565 49.6609C11.4967 49.7206 11.437 49.7206 11.3773 49.7206Z" fill="#351C12"/>
<path d="M14.6622 47.9587C14.5428 47.9587 14.4233 47.899 14.3636 47.7795C12.3628 43.987 11.9746 37.8056 11.9746 37.5368C11.9746 37.3576 12.0941 37.1785 12.3031 37.1785C12.4823 37.1785 12.6316 37.3278 12.6614 37.507C12.6614 37.5667 13.0496 43.8079 14.9907 47.4511C15.0803 47.6302 15.0206 47.8094 14.8414 47.899C14.7518 47.9587 14.7219 47.9587 14.6622 47.9587Z" fill="#351C12"/>
<path d="M17.5888 46.5253C17.4694 46.5253 17.3201 46.4357 17.2902 46.3163C15.6776 42.4641 15.5283 36.85 15.5283 36.6111C15.5283 36.4319 15.6776 36.193 15.8568 36.193C16.036 36.193 16.3346 36.4618 16.2152 36.6111C16.1256 36.7305 16.3346 42.3147 17.8874 46.0774C17.9472 46.2565 17.8874 46.4357 17.7083 46.5253C17.6784 46.5253 17.6485 46.5253 17.5888 46.5253Z" fill="#351C12"/>
<path opacity="0.3" d="M7.64461 39.8064C7.64461 39.8064 6.68902 39.896 6.56957 40.7023C6.42026 41.5085 6.56957 44.226 7.2564 47.5407C7.94323 50.8554 15.5282 74.9243 39.418 69.1908C21.5007 71.4006 8.71965 58.0223 7.64461 39.8064Z" fill="#A9AFB0"/>
<path d="M47.0328 66.4434C46.9432 66.2643 46.7342 66.2643 46.6446 66.2941C44.9723 66.9212 32.1316 68.922 27.0251 55.6035C24.8751 50.079 24.7855 44.4947 24.7855 44.4649C24.7855 43.8378 24.8153 43.2704 24.8452 42.7926C24.9646 41.0904 25.0244 39.9557 23.2625 39.7466C22.6354 39.6869 22.0979 39.8661 21.6798 40.314C20.9631 41.0606 20.6048 42.3745 20.4555 43.4794C20.0374 41.8669 19.47 39.448 19.261 37.3577C19.1117 35.9243 18.2457 35.3868 17.4692 35.3868C16.9317 35.3868 16.3643 35.6555 15.9761 36.1035C15.6775 35.4465 15.0803 34.8492 14.0351 34.8492C13.8559 34.8492 13.7066 34.8492 13.4976 34.8791C12.3628 35.0881 11.9447 36.1035 11.9149 36.8799C11.676 36.7306 11.3475 36.6111 10.9593 36.6111C10.6607 36.6111 10.3023 36.6708 9.97383 36.8201C8.83907 37.2681 8.60017 38.7313 8.60017 39.5376C8.42099 39.5077 8.24182 39.4779 8.03279 39.4779C7.49527 39.4779 7.01747 39.6571 6.68899 40.0154C6.24105 40.4932 6.03202 41.2398 6.06188 42.2849C6.09174 42.9718 6.3605 48.9143 9.70507 55.5437C13.4677 63.069 19.4103 67.7872 27.3536 69.579C29.2349 69.997 31.2058 70.2359 33.2365 70.2359C39.8659 70.2359 46.3758 67.2497 46.9133 66.8914C46.9133 66.8914 47.1522 66.7122 47.0328 66.4434ZM45.4501 67.1004C42.7326 68.3247 37.9846 69.5491 33.2365 69.5491C31.2656 69.5491 29.3544 69.3401 27.5029 68.922C19.7686 67.1601 13.9754 62.5613 10.3023 55.275C7.01747 48.765 6.74871 42.9718 6.71885 42.2849C6.68899 41.4488 6.8383 40.8515 7.16678 40.4932C7.37582 40.2842 7.67444 40.1647 8.03279 40.1647C8.48072 40.1647 8.86893 40.314 8.86893 40.314C8.98838 40.3737 9.10782 40.3439 9.22727 40.2543C9.31686 40.1647 8.98838 37.9549 10.2426 37.4473C10.5113 37.3278 10.7502 37.2979 10.9891 37.2979C11.7357 37.2979 12.0045 37.925 12.0045 37.925C12.0642 38.0744 12.2135 38.1639 12.3628 38.1341C12.5121 38.1042 12.6316 37.9848 12.6614 37.8355C12.6614 37.7459 12.6614 37.6264 12.6614 37.4771C12.6017 36.5813 12.6316 35.7152 13.6469 35.5361C13.7962 35.5062 13.9455 35.5062 14.0649 35.5062C14.2143 35.5062 15.5581 35.5659 15.6178 37.1785C15.6178 37.3577 15.7671 37.507 15.9463 37.507C16.1254 37.507 16.215 37.4473 16.2449 37.2681C16.2747 36.4021 16.6331 36.0139 17.529 36.0139C18.1561 36.0139 18.5443 36.4917 18.6339 37.3577C18.9922 40.9411 20.3659 45.3906 20.3957 45.4503C20.4555 45.5996 20.6048 45.7191 20.7839 45.6892C20.9631 45.6594 21.0826 45.51 21.0826 45.3607C21.0826 45.3309 21.0826 41.9564 22.2472 40.7321C22.5458 40.4335 22.8743 40.314 23.2924 40.3439C24.3674 40.4633 24.3674 40.8515 24.2479 42.6731C24.2181 43.1808 24.1882 43.7482 24.1882 44.4051C24.1882 44.4649 24.2181 50.1685 26.4578 55.7826C29.4141 63.278 34.8789 67.2497 42.2548 67.2497C42.882 67.2497 44.2855 67.2198 45.6591 66.8914C45.7786 66.8914 45.7786 66.9511 45.4501 67.1004Z" fill="#351C12"/>
<path d="M50.1683 67.3392C46.973 66.7718 45.7785 65.2489 45.7487 65.219C45.6292 65.0697 45.4202 65.0398 45.2709 65.1593C45.1216 65.2787 45.0917 65.4878 45.2112 65.6371C45.2709 65.6968 46.5251 67.2795 50.1384 67.9962L50.1683 67.3392Z" fill="#E78824"/>
</g>
<defs>
<clipPath id="clip0_154_3">
<rect width="117" height="71.938" fill="white"/>
</clipPath>
</defs>
</svg>
