<?xml version="1.0" encoding="utf-8"?><svg viewBox="0 0 33 32" xmlns="http://www.w3.org/2000/svg" xmlns:xlink="http://www.w3.org/1999/xlink"><style>:root>svg{display:none}:root>svg:target{display:block}</style><svg viewBox="0 0 6 8" id="arrow-next" xmlns="http://www.w3.org/2000/svg"><path clip-rule="evenodd" d="M.915.227a.563.563 0 000 .796L3.892 4 .915 6.977a.563.563 0 00.795.796l3.375-3.375a.563.563 0 000-.796L1.71.227a.563.563 0 00-.795 0z"/></svg><svg viewBox="0 0 6 8" id="arrow-prev" xmlns="http://www.w3.org/2000/svg"><path clip-rule="evenodd" d="M5.085.227c.22.22.22.576 0 .796L2.108 4l2.977 2.977a.563.563 0 01-.795.796L.915 4.398a.563.563 0 010-.796L4.29.227c.22-.22.576-.22.795 0z"/></svg><svg viewBox="0 0 16 16" id="bx_bxl-tiktok" xmlns="http://www.w3.org/2000/svg"><path d="M13.06 4.46a3.22 3.22 0 01-2.513-2.833v-.293h-2.3v9.113a1.927 1.927 0 01-3.467 1.16 1.927 1.927 0 011.54-3.093c.199-.001.397.028.587.087V6.267A4.22 4.22 0 003.334 13.4a4.227 4.227 0 007.24-2.953V5.781a5.44 5.44 0 003.18 1.013V4.527c-.224.001-.448-.021-.667-.066h-.027z"/></svg><svg viewBox="0 0 20 20" id="doc" xmlns="http://www.w3.org/2000/svg"><path d="M16.719 8.75H11.25a1.875 1.875 0 01-1.875-1.875V1.406a.156.156 0 00-.156-.156H5.625a2.5 2.5 0 00-2.5 2.5v12.5a2.5 2.5 0 002.5 2.5h8.75a2.5 2.5 0 002.5-2.5V8.906a.156.156 0 00-.156-.156zM13.125 15h-6.25a.625.625 0 110-1.25h6.25a.624.624 0 110 1.25zm0-3.125h-6.25a.625.625 0 110-1.25h6.25a.624.624 0 110 1.25z"/><path d="M16.376 7.367l-5.618-5.618a.078.078 0 00-.133.055v5.07a.625.625 0 00.625.626h5.07a.078.078 0 00.056-.133z"/></svg><svg viewBox="0 0 16 16" id="fb" xmlns="http://www.w3.org/2000/svg"><path clip-rule="evenodd" d="M15 8.042a7 7 0 10-8.094 6.915v-4.89H5.128V8.041h1.778V6.5c0-1.754 1.046-2.724 2.644-2.724.766 0 1.567.137 1.567.137v1.723h-.883c-.869 0-1.14.54-1.14 1.094v1.312h1.94l-.31 2.024h-1.63v4.892A7.002 7.002 0 0015 8.042z"/></svg><svg viewBox="0 0 17 16" id="inst" xmlns="http://www.w3.org/2000/svg"><path d="M11.25 2.167a2.926 2.926 0 012.917 2.916v5.834a2.926 2.926 0 01-2.917 2.916H5.417A2.926 2.926 0 012.5 10.917V5.083a2.926 2.926 0 012.917-2.916h5.833zm0-1.167H5.417a4.095 4.095 0 00-4.084 4.083v5.834A4.095 4.095 0 005.417 15h5.833a4.095 4.095 0 004.083-4.083V5.083A4.095 4.095 0 0011.25 1z"/><path d="M12.125 5.083a.875.875 0 110-1.75.875.875 0 010 1.75zm-3.792.583a2.333 2.333 0 110 4.667 2.333 2.333 0 010-4.667zm0-1.166a3.5 3.5 0 100 7 3.5 3.5 0 000-7z"/></svg><svg viewBox="0 0 16 16" id="ok" xmlns="http://www.w3.org/2000/svg"><path d="M7.99 8.228c-1.883 0-3.449-1.564-3.449-3.415 0-1.914 1.566-3.479 3.45-3.479 1.948 0 3.448 1.564 3.448 3.48a3.428 3.428 0 01-3.438 3.415l-.011-.001zm0-4.883c-.797 0-1.404.67-1.404 1.469 0 .797.607 1.404 1.405 1.404.83 0 1.404-.607 1.404-1.404 0-.8-.574-1.469-1.405-1.469zm1.373 7.724l1.949 1.884c.383.414.383 1.02 0 1.404-.415.414-1.054.414-1.373 0L7.99 12.44l-1.884 1.916a1.013 1.013 0 01-.736.286c-.223 0-.478-.096-.702-.286-.384-.384-.384-.99 0-1.405l1.98-1.883a8.994 8.994 0 01-2.042-.893c-.48-.255-.575-.893-.32-1.373.32-.478.894-.606 1.406-.286a4.413 4.413 0 004.598 0c.511-.32 1.117-.192 1.404.286.288.48.16 1.117-.288 1.373-.606.383-1.308.67-2.043.894z"/></svg><svg viewBox="0 0 12 12" id="paw" xmlns="http://www.w3.org/2000/svg"><path d="M11.494 4.283a1.146 1.146 0 00-.626-.644l-.003-.001a1.09 1.09 0 00-.399-.075h-.015c-.638.01-1.29.552-1.621 1.35-.243.583-.271 1.211-.075 1.679.13.31.347.532.627.644l.003.002c.127.05.262.075.398.075.645 0 1.303-.543 1.64-1.352.24-.583.267-1.21.07-1.678zM8.943 7.725c-.369-.221-.717-.43-.944-.806C7.372 5.879 6.993 5.25 6 5.25c-.993 0-1.373.628-2.001 1.669-.228.376-.577.586-.946.808-.424.254-.861.517-1.05 1.035-.074.186-.11.385-.11.586 0 .842.657 1.528 1.463 1.528.416 0 .86-.144 1.328-.297.45-.147.916-.298 1.318-.298.403 0 .868.151 1.316.298.468.152.909.296 1.326.296.805 0 1.46-.685 1.46-1.528 0-.2-.037-.4-.111-.586-.19-.518-.627-.781-1.05-1.036zM3.516 4.426c.279.35.633.543.996.543.05 0 .1-.004.149-.011.758-.112 1.231-1.038 1.076-2.11a2.483 2.483 0 00-.487-1.181c-.278-.35-.633-.542-.996-.542-.05 0-.1.004-.149.011-.758.112-1.231 1.037-1.076 2.11.065.45.238.869.487 1.18zm3.824.532c.049.007.098.01.148.01.364 0 .718-.192.997-.542.248-.311.42-.73.486-1.181.155-1.072-.318-1.997-1.076-2.11a1.005 1.005 0 00-.149-.01c-.363 0-.717.192-.996.542a2.48 2.48 0 00-.486 1.182C6.108 3.92 6.58 4.846 7.34 4.958zm-4.725 2.28l.004-.002c.28-.112.496-.335.625-.644.197-.468.17-1.095-.074-1.679-.335-.808-.994-1.35-1.638-1.35-.136 0-.271.025-.398.075h-.003c-.28.112-.496.336-.625.645-.197.469-.169 1.095.074 1.68.336.807.994 1.35 1.638 1.35.136 0 .27-.026.397-.075z"/></svg><svg viewBox="0 0 15 18" id="play" xmlns="http://www.w3.org/2000/svg"><path d="M15 9L0 17.66V.34L15 9z"/></svg><svg viewBox="0 0 33 32" id="tiktok" xmlns="http://www.w3.org/2000/svg"><circle cx="16.667" cy="16" r="16"/><path d="M22.06 12.46a3.22 3.22 0 01-2.513-2.833v-.293h-2.3v9.113a1.927 1.927 0 01-3.467 1.16 1.927 1.927 0 011.54-3.093c.199-.001.397.028.587.087v-2.334a4.22 4.22 0 00-3.573 7.133 4.227 4.227 0 007.24-2.953v-4.666a5.44 5.44 0 003.18 1.013v-2.267c-.225.001-.448-.021-.667-.066h-.027z"/></svg><svg viewBox="0 0 16 16" id="vk" xmlns="http://www.w3.org/2000/svg"><path clip-rule="evenodd" d="M15.147 4.125c.111-.353 0-.609-.492-.609h-1.637c-.413 0-.603.225-.715.465 0 0-.841 2.05-2.017 3.379-.381.384-.556.512-.763.512-.11 0-.254-.128-.254-.48V4.108c0-.416-.127-.608-.476-.608H6.219a.396.396 0 00-.413.384c0 .4.587.497.65 1.618v2.436c0 .528-.093.625-.301.625-.556 0-1.906-2.066-2.716-4.42-.158-.467-.318-.643-.73-.643H1.055C.579 3.5.5 3.724.5 3.964c0 .433.556 2.61 2.59 5.493 1.35 1.969 3.272 3.027 5.003 3.027 1.05 0 1.176-.24 1.176-.64v-1.49c0-.48.095-.56.43-.56.237 0 .666.128 1.635 1.073 1.112 1.12 1.303 1.633 1.923 1.633h1.636c.476 0 .699-.24.572-.705-.143-.464-.683-1.137-1.383-1.937-.38-.448-.953-.945-1.127-1.185-.238-.32-.175-.449 0-.737-.016 0 1.986-2.85 2.192-3.812"/></svg></svg>