<svg width="33" height="32" viewBox="0 0 33 32" fill="none" xmlns="http://www.w3.org/2000/svg">
<path d="M22.0601 12.4607C21.3955 12.3145 20.7944 11.9616 20.3428 11.4526C19.8913 10.9436 19.6126 10.3046 19.5468 9.62732V9.33398H17.2468V18.4473C17.2472 18.8517 17.1205 19.246 16.8844 19.5743C16.6483 19.9026 16.3149 20.1483 15.9315 20.2766C15.548 20.405 15.1339 20.4094 14.7477 20.2892C14.3616 20.1691 14.0231 19.9305 13.7801 19.6073C13.5624 19.3212 13.4291 18.9799 13.3952 18.622C13.3614 18.2641 13.4284 17.9038 13.5886 17.582C13.7488 17.2601 13.9959 16.9896 14.3019 16.8008C14.6079 16.6121 14.9606 16.5127 15.3201 16.514C15.5189 16.5128 15.7168 16.5421 15.9068 16.6007V14.2673C15.6857 14.2399 15.4628 14.2288 15.2401 14.234C14.4196 14.2559 13.6234 14.5166 12.9488 14.9842C12.2743 15.4517 11.7507 16.1058 11.4422 16.8664C11.1337 17.627 11.0537 18.461 11.212 19.2664C11.3703 20.0717 11.76 20.8134 12.3334 21.4007C12.9211 21.9981 13.6731 22.4074 14.4939 22.5765C15.3147 22.7456 16.1672 22.6669 16.9432 22.3504C17.7192 22.0338 18.3835 21.4938 18.8518 20.7988C19.3202 20.1039 19.5713 19.2854 19.5734 18.4473V13.7807C20.5011 14.4433 21.6134 14.7977 22.7534 14.794V12.5273C22.5295 12.5282 22.3061 12.5059 22.0868 12.4607H22.0601Z" fill="white"/>
</svg>
