<svg width="32" height="32" viewBox="0 0 32 32" fill="none" xmlns="http://www.w3.org/2000/svg">
<circle cx="16" cy="16" r="16" fill="#EEA640"/>
<path fill-rule="evenodd" clip-rule="evenodd" d="M23.1469 12.125C23.2581 11.7725 23.1469 11.5162 22.6547 11.5162H21.0181C20.6053 11.5162 20.4147 11.7406 20.3034 11.9806C20.3034 11.9806 19.4616 14.0306 18.2859 15.3597C17.9047 15.7441 17.73 15.8722 17.5234 15.8722C17.4122 15.8722 17.2691 15.7441 17.2691 15.3919V12.1084C17.2691 11.6922 17.1422 11.5 16.7925 11.5H14.2188C13.9644 11.5 13.8056 11.6922 13.8056 11.8844C13.8056 12.2847 14.3934 12.3809 14.4569 13.5019V15.9375C14.4569 16.4659 14.3631 16.5625 14.155 16.5625C13.5991 16.5625 12.2487 14.4966 11.4388 12.1425C11.2812 11.6762 11.1213 11.5 10.7081 11.5H9.05594C8.57938 11.5 8.5 11.7241 8.5 11.9644C8.5 12.3969 9.05594 14.5747 11.0894 17.4572C12.4397 19.4259 14.3619 20.4841 16.0934 20.4841C17.1422 20.4841 17.2691 20.2437 17.2691 19.8434V18.3541C17.2691 17.8737 17.3644 17.7937 17.6981 17.7937C17.9362 17.7937 18.3653 17.9216 19.3344 18.8666C20.4463 19.9875 20.6369 20.5 21.2566 20.5H22.8928C23.3694 20.5 23.5919 20.2597 23.4647 19.7953C23.3219 19.3309 22.7816 18.6584 22.0825 17.8578C21.7013 17.4097 21.1294 16.9131 20.9547 16.6728C20.7166 16.3525 20.78 16.2244 20.9547 15.9363C20.9387 15.9363 22.9406 13.0856 23.1469 12.1238" fill="white"/>
</svg>
